<svg xmlns="http://www.w3.org/2000/svg" xmlns:xlink="http://www.w3.org/1999/xlink" viewBox="0 0 1000 313.06">
    <defs>
        <style>.cls-1{fill:#03020d;}.cls-2{fill:url(#linear-gradient);}.cls-3{fill:url(#linear-gradient-2);}</style>
        <linearGradient id="linear-gradient" x1="53.56" y1="366.15" x2="317.6" y2="72.9" gradientUnits="userSpaceOnUse">
            <stop offset="0" stop-color="#ff5416"/>
            <stop offset="0.25" stop-color="#ff5115"/>
            <stop offset="0.46" stop-color="#ff4712"/>
            <stop offset="0.65" stop-color="#ff350e"/>
            <stop offset="0.83" stop-color="#ff1e08"/>
            <stop offset="1" stop-color="red"/>
        </linearGradient>
        <linearGradient id="linear-gradient-2" x1="104.78" y1="385.11" x2="260.83" y2="211.78" xlink:href="#linear-gradient"/>
    </defs>
    <path class="cls-1" d="M618,244.39V40H654.9V114a65.74,65.74,0,0,1,45.56-18.46c39.91,0,75.35,30.37,75.35,76.24S740.37,248,700.46,248a66,66,0,0,1-47.35-20v16.38Zm120.91-72.66c0-25.62-18.17-43.48-42-43.48-23.23,0-41.1,17-42,41.69v1.79c0,25.61,18.17,43.48,42,43.48S738.88,197.34,738.88,171.73Zm54.06,72.66V40h36.92V244.39Zm88.51,53.05,21.46-51.26L844.54,99.06h39.91L921.68,201.8,959.5,99.06H1000L920.76,297.44ZM559.4,99.06v18.46a66.94,66.94,0,0,0-49.14-22c-39.91,0-75.34,30.37-75.34,76.24S470.35,248,510.26,248c19.06,0,37.23-8.33,50.33-23.22v19.65h32.15V99.06Zm-3.57,72.67c0,25.31-18.17,43.48-42,43.48s-42-18.17-42-43.48,18.17-43.48,42-43.48c23.23,0,41.1,17.27,42,41.69Z"/>
    <path class="cls-2" d="M188.68,0,30.79,289,0,267.42,146.08,0Zm2.25,0,157.9,289,30.79-21.56L233.54,0Z"/>
    <polygon class="cls-3" points="346.6 290.66 189.81 167.94 33.03 290.66 65.03 313.06 189.81 215.44 314.6 313.06 346.6 290.66"/>
</svg>
