<?xml version="1.0" encoding="utf-8"?>
<!-- Generator: Adobe Illustrator 25.0.1, SVG Export Plug-In . SVG Version: 6.00 Build 0)  -->
<svg version="1.1" id="Layer_1" xmlns="http://www.w3.org/2000/svg" xmlns:xlink="http://www.w3.org/1999/xlink" x="0px" y="0px"
	 viewBox="0 0 640 480" style="enable-background:new 0 0 640 480;" xml:space="preserve">
<style type="text/css">
	.st0{fill:#ED760A;}
	.st1{fill:#F9A01B;}
	.st2{fill:#1E1E1E;}
</style>
<path class="st0" d="M229.03,218.02c-19.88,0-36,16.12-36,36c0,19.88,16.12,36,36,36c19.88,0,36-16.12,36-36
	C265.03,234.13,248.91,218.02,229.03,218.02z M229.03,270.02c-8.82,0-16-7.18-16-16c0-8.82,7.18-16,16-16c8.82,0,16,7.18,16,16
	C245.03,262.84,237.85,270.02,229.03,270.02z"/>
<path class="st1" d="M215.09,215.29c-0.35,0.12-0.89,0.27-1.44,0.27c-1.63,0-3.04-0.98-3.66-2.38l0,0l-6.4-13.74l0.07,0.15
	c-0.27-0.54-0.42-1.15-0.42-1.79c0-1.52,0.88-2.88,2.21-3.58c7.07-3.65,15.08-5.71,23.58-5.71c28.44,0,51.5,23.06,51.5,51.5
	c0,15.14-6.53,28.76-16.93,38.18l0,0.01c-0.12,0.1-0.22,0.15-0.35,0.15c-0.28,0-0.5-0.22-0.5-0.5c0-0.13,0.03-0.25,0.09-0.36
	c4.63-6.66,7.35-14.74,7.35-23.47c0-22.73-18.43-41.16-41.16-41.16C224.13,212.86,219.44,213.72,215.09,215.29"/>
<path class="st2" d="M330.3,235.16v-0.75c0-2.17-0.81-3.8-7.19-3.8c-3.19,0-5.77,0.41-6.92,0.61c-3.53,0.54-4.27-0.41-4.88-3.8
	l-0.14-0.75c-0.14-0.88-0.27-1.63-0.27-2.24c0-2.03,1.02-2.71,4.07-3.32c3.12-0.61,8.95-0.81,12.21-0.81
	c12.62,0,16.55,3.05,16.68,13.63v16.41c0,3.73-0.68,4.81-4.68,5.83c-1.29,0.34-6.31,1.42-12.41,1.42c-9.09,0-17.77-2.44-17.77-11.33
	v-1.76c0-6.92,4.88-10.65,13.16-10.65C325.08,233.87,327.45,234.35,330.3,235.16z M323.24,245.54c0,1.9,1.42,3.05,4.48,3.05
	c1.02,0,1.9-0.14,2.58-0.27v-4.41c-1.09-0.81-2.51-1.02-3.59-1.02c-2.37,0-3.46,0.95-3.46,2.37V245.54z"/>
<path class="st2" d="M386.58,237.06v1.09c0,15.26-10.24,19.47-21.3,19.47c-4.68,0-9.83-0.75-12.28-1.42c-2.51-0.75-4-2.03-4-5.15
	v-40.56c0-2.85,1.22-4.07,4.07-4.07h5.43c2.85,0,4.07,1.22,4.07,4.07v12.48c3.87-2.1,6.92-2.65,9.63-2.65
	C381.15,220.31,386.58,226.34,386.58,237.06z M372.33,237.81c0-4.14-1.76-6.44-5.56-6.44c-1.29,0-2.92,0.27-4.21,1.02v14.52
	c1.15,0.27,2.1,0.34,2.71,0.34c3.87,0,7.05-2.64,7.05-8.48V237.81z"/>
<path class="st2" d="M408.84,251.98c0.14,3.32-0.68,4-3.53,4.54c-1.08,0.2-2.71,0.41-4.34,0.41c-6.31,0-9.97-2.85-9.97-12.68v-33.1
	c0-3.32,1.42-4.75,4.75-4.75h4.07c3.32,0,4.75,1.42,4.75,4.75v33.03c0,1.9,0.2,2.37,1.22,2.37h0.61c1.83,0,2.31,1.7,2.37,3.8
	L408.84,251.98z"/>
<path class="st2" d="M428.85,245.48c2.58-5.43,4.54-11.8,4.54-18.92v-0.81c0-3.32,1.42-4.75,4.75-4.75h3.39
	c3.32,0,4.75,1.42,4.75,4.75v0.88c0,18.18-8.55,28.35-21.09,43.88c-0.75,1.02-1.63,1.63-2.71,1.63c-1.08,0-1.9-0.47-2.98-1.36
	l-2.37-1.9c-1.63-1.29-2.31-2.44-2.31-3.46c0-0.75,0.34-1.42,1.02-2.1c1.63-1.7,3.93-4.14,5.83-6.51
	c-3.12-4.21-10.04-19.26-12.28-31.34c-0.61-3.26-0.07-4.48,4.27-4.48h5.29c3.59,0,4.07,2.65,4.41,4.68
	c1.42,8.21,4.75,18.18,4.75,18.11L428.85,245.48z"/>
</svg>
