<?xml version="1.0" encoding="utf-8"?>
<!-- Generator: Adobe Illustrator 24.3.0, SVG Export Plug-In . SVG Version: 6.00 Build 0)  -->
<svg version="1.1" id="Layer_1" xmlns="http://www.w3.org/2000/svg" xmlns:xlink="http://www.w3.org/1999/xlink" x="0px" y="0px"
	 viewBox="0 0 273 114" style="enable-background:new 0 0 273 114;" xml:space="preserve">
<style type="text/css">
	.st0{fill:#ED760A;}
	.st1{fill:#F9A01B;}
	.st2{fill:#1E1E1E;}
</style>
<path class="st0" d="M63.7,48.1c-16.3,0-29.4,13.2-29.4,29.4S47.4,107,63.7,107s29.4-13.2,29.4-29.4S79.9,48.1,63.7,48.1z
	 M63.7,90.6c-7.2,0-13.1-5.9-13.1-13.1s5.9-13.1,13.1-13.1s13.1,5.9,13.1,13.1S70.9,90.6,63.7,90.6z"/>
<path class="st1" d="M52.3,45.9c-0.3,0.1-0.7,0.2-1.1,0.2c-1.3,0-2.5-0.8-3-2l0,0L42.9,33l0.1,0.1c-0.2-0.4-0.3-0.9-0.3-1.5
	c0-1.2,0.7-2.4,1.8-2.9c5.7-2.9,12.3-4.7,19.2-4.7c23.2,0,42.1,18.9,42.1,42.1c0,12.3-5.3,23.6-13.8,31.2l0,0
	c-0.1,0.1-0.2,0.1-0.3,0.1c-0.2,0-0.4-0.2-0.4-0.4c0-0.1,0-0.2,0.1-0.3c3.8-5.5,6.1-12,6.1-19.2c0-18.6-15-33.7-33.7-33.7
	C59.6,44,55.8,44.6,52.3,45.9"/>
<path class="st2" d="M146.5,62.2v-0.7c0-1.8-0.7-3.1-5.9-3.1c-2.6,0-4.7,0.3-5.6,0.5c-2.9,0.4-3.5-0.3-4-3.1l-0.1-0.7
	c-0.1-0.7-0.2-1.3-0.2-1.8c0-1.6,0.8-2.2,3.4-2.7c2.5-0.5,7.4-0.7,10-0.7c10.3,0,13.5,2.5,13.7,11.1v13.4c0,3-0.6,3.9-3.8,4.7
	c-1.1,0.2-5.2,1.1-10.1,1.1c-7.4,0-14.6-2-14.6-9.2v-1.5c0-5.6,4-8.7,10.8-8.7C142.2,61.1,144.2,61.5,146.5,62.2z M140.7,70.6
	c0,1.6,1.1,2.5,3.7,2.5c0.8,0,1.6-0.1,2.1-0.2v-3.6c-0.9-0.7-2-0.8-2.9-0.8c-2,0-2.9,0.7-2.9,2V70.6L140.7,70.6z"/>
<path class="st2" d="M192.5,63.7v0.9c0,12.5-8.3,15.9-17.4,15.9c-3.8,0-8-0.7-10.1-1.1c-2-0.7-3.3-1.6-3.3-4.2V42
	c0-2.4,1-3.4,3.4-3.4h4.4c2.4,0,3.4,1,3.4,3.4v10.2c3.2-1.7,5.6-2.1,7.9-2.1C188,50,192.5,54.9,192.5,63.7z M180.8,64.3
	c0-3.4-1.5-5.2-4.6-5.2c-1.1,0-2.4,0.2-3.4,0.8v11.9c0.9,0.2,1.7,0.2,2.2,0.2c3.2,0,5.7-2.1,5.7-7L180.8,64.3L180.8,64.3z"/>
<path class="st2" d="M210.7,75.9c0.1,2.7-0.6,3.3-2.9,3.7c-0.9,0.2-2.2,0.3-3.5,0.3c-5.2,0-8.2-2.4-8.2-10.4V42.5
	c0-2.7,1.1-3.9,3.9-3.9h3.4c2.7,0,3.9,1.1,3.9,3.9v27c0,1.6,0.2,2,1,2h0.5c1.5,0,1.9,1.4,2,3.1L210.7,75.9z"/>
<path class="st2" d="M227.1,70.6c2.1-4.4,3.7-9.6,3.7-15.5v-0.7c0-2.7,1.1-3.9,3.9-3.9h2.8c2.7,0,3.9,1.1,3.9,3.9v0.7
	c0,14.9-7,23.2-17.3,35.9c-0.7,0.8-1.3,1.3-2.2,1.3c-0.9,0-1.6-0.4-2.5-1.1l-2-1.6c-1.3-1.1-1.9-2-1.9-2.9c0-0.7,0.2-1.1,0.8-1.7
	c1.3-1.4,3.2-3.4,4.7-5.3c-2.5-3.4-8.2-15.8-10.1-25.6c-0.5-2.7-0.1-3.7,3.5-3.7h4.3c2.9,0,3.4,2.1,3.6,3.8
	c1.1,6.7,3.9,14.9,3.9,14.8L227.1,70.6z"/>
</svg>
