<?xml version="1.0" encoding="UTF-8"?><svg id="Layer_1" xmlns="http://www.w3.org/2000/svg" viewBox="0 0 800 368"><g><path d="M462.5,237.8c-6.7,0-12.6-1.6-17.7-4.8-5.1-3.2-9.1-7.8-11.9-13.8-2.9-6-4.3-13.2-4.3-21.5s1.4-15.5,4.3-21.5c2.9-6,6.8-10.5,11.9-13.8,5.1-3.2,11-4.8,17.7-4.8s12.2,1.6,17.2,4.8c4.9,3.2,8.2,7.5,9.9,12.9h-1.7l1.7-16.2h18.3c-.3,3.2-.6,6.4-.8,9.6-.3,3.3-.4,6.5-.4,9.6v57.9h-18.9l-.2-15.9h1.8c-1.6,5.3-4.9,9.5-9.9,12.7-5,3.2-10.6,4.7-17,4.7Zm5.3-14.7c6,0,10.8-2.1,14.5-6.3,3.7-4.2,5.5-10.6,5.5-19.2s-1.8-14.9-5.5-19.1c-3.7-4.2-8.5-6.3-14.5-6.3s-10.8,2.1-14.5,6.3c-3.7,4.2-5.5,10.5-5.5,19.1s1.8,14.9,5.4,19.2c3.6,4.2,8.5,6.3,14.6,6.3Z" fill="#00111d"/><path d="M527.5,236.3V123.8h19.1v68.1h.3l31.3-32.8h23.1l-39,40.8,.2-7.6,41.6,44h-23.7l-33.5-34.5h-.3v34.5h-19.1Z" fill="#00111d"/><path d="M610.7,144.6v-18.6h21.2v18.6h-21.2Zm1.1,91.7v-77.2h19.1v77.2h-19.1Z" fill="#00111d"/><path d="M651.5,236.3v-57.4c0-3.3,0-6.6-.2-9.9-.2-3.4-.4-6.6-.8-9.8h18.5l2.1,21.1h-3.1c1-5.1,2.7-9.3,5.1-12.7,2.4-3.4,5.3-5.9,8.8-7.5,3.5-1.6,7.2-2.4,11.3-2.4s3.3,0,4.4,.2c1.1,.2,2.2,.4,3.4,.8l-.2,16.8c-1.9-.8-3.6-1.3-5-1.5-1.4-.2-3.1-.3-5.1-.3-4.4,0-8.1,.9-11.1,2.8-3,1.8-5.2,4.4-6.7,7.6-1.5,3.3-2.2,7-2.2,11.2v41.1h-19.3Z" fill="#00111d"/><path d="M745.3,237.8c-7.9,0-14.8-1.6-20.6-4.9-5.8-3.3-10.3-7.9-13.5-13.9-3.2-6-4.8-13.1-4.8-21.4s1.6-15.4,4.8-21.3c3.2-6,7.7-10.6,13.5-13.8,5.8-3.3,12.7-4.9,20.6-4.9s14.8,1.6,20.7,4.9c5.9,3.3,10.4,7.9,13.6,13.8,3.2,6,4.8,13.1,4.8,21.3s-1.6,15.4-4.8,21.4c-3.2,6-7.7,10.6-13.6,13.9-5.9,3.3-12.8,4.9-20.7,4.9Zm0-14.7c6,0,10.8-2.1,14.4-6.3,3.6-4.2,5.3-10.6,5.3-19.2s-1.8-14.9-5.3-19.1c-3.6-4.2-8.4-6.3-14.4-6.3s-10.8,2.1-14.4,6.3c-3.6,4.2-5.3,10.5-5.3,19.1s1.8,14.9,5.3,19.2c3.6,4.2,8.4,6.3,14.4,6.3Z" fill="#00111d"/></g><g><path d="M164,184.3c-4.1-4.7-9.6-7.1-16.3-7.1-6.8,0-12.2,2.4-16.4,7.1-4.1,4.7-6.2,11.9-6.2,21.5s2,16.8,6.1,21.6,9.6,7.1,16.4,7.1c6.8,0,12.2-2.4,16.4-7.1,4.1-4.8,6.2-12,6.2-21.6,0-9.6-2.1-16.8-6.2-21.5Z" fill="#00111d"/><path d="M264.5,9.4C127,9.4,15.6,120.8,15.6,258.3v100.3h249c55.4,0,100.3-44.9,100.3-100.3V109.7c0-55.4-44.9-100.3-100.3-100.3Zm-17.3,150.4l15.5-15.5c2.9-2.9,7.7-2.9,10.6,0,2.9,2.9,2.9,7.7,0,10.6l-15.5,15.5c-1.5,1.5-3.4,2.2-5.3,2.2s-3.8-.7-5.3-2.2c-2.9-2.9-2.9-7.7,0-10.6Zm-55.4,13.5c-.3,3.7-.4,7.3-.4,10.8v65.2h-21.3v-13.1c-2.2,3.8-5.3,7-9.3,9.5-5.6,3.6-12,5.3-19.1,5.3s-14.2-1.8-20-5.4c-5.7-3.6-10.2-8.8-13.4-15.6-3.2-6.8-4.8-14.9-4.8-24.3s1.6-17.5,4.8-24.2c3.2-6.7,7.7-11.9,13.4-15.5s12.4-5.4,20-5.4,13.8,1.8,19.4,5.4c4.3,2.8,7.5,6.4,9.6,10.7l1.5-14.4h20.7c-.3,3.6-.7,7.2-.9,10.8Zm36.8,46.6c-9.1,0-16.5-7.4-16.5-16.5s7.4-16.5,16.5-16.5,16.5,7.4,16.5,16.5-7.4,16.5-16.5,16.5Zm44.7,42.7c-1.5,1.5-3.4,2.2-5.3,2.2s-3.8-.7-5.3-2.2l-15.5-15.5c-2.9-2.9-2.9-7.7,0-10.6,2.9-2.9,7.7-2.9,10.6,0l15.5,15.5c2.9,2.9,2.9,7.7,0,10.6Zm12.7-51.7h-19c-4.1,0-7.5-3.4-7.5-7.5s3.4-7.5,7.5-7.5h19c4.1,0,7.5,3.4,7.5,7.5s-3.4,7.5-7.5,7.5Z" fill="#00111d"/></g></svg>