<?xml version="1.0" encoding="UTF-8"?>
<svg width="200px" height="200px" viewBox="0 0 200 200" version="1.1" xmlns="http://www.w3.org/2000/svg" xmlns:xlink="http://www.w3.org/1999/xlink">
    <title>200</title>
    <g id="200" stroke="none" stroke-width="1" fill="none" fill-rule="evenodd">
        <g id="编组" transform="translate(4.000000, 51.000000)">
            <g id="编组-58" transform="translate(64.000000, -0.000000)" fill="#00B173">
                <path d="M48.3482459,38.1282024 C47.1821742,38.1282024 46.2363369,37.1823651 46.2363369,36.0173573 C46.2363369,34.8502218 47.1821742,33.9043844 48.3482459,33.9043844 C54.9797464,33.9043844 60.3749557,28.5091752 60.3749557,21.8787386 C60.3749557,15.2461741 54.9797464,9.85096481 48.3482459,9.85096481 C47.1821742,9.85096481 46.2363369,8.90512749 46.2363369,7.74011977 C46.2363369,6.57298419 47.1821742,5.62714687 48.3482459,5.62714687 C57.3086979,5.62714687 64.5987736,12.9172226 64.5987736,21.8787386 C64.5987736,30.8381267 57.3086979,38.1282024 48.3482459,38.1282024" id="Fill-2"></path>
                <path d="M16.2505278,38.1282024 C7.2900757,38.1282024 7.55970568e-15,30.8381267 7.55970568e-15,21.8787386 C7.55970568e-15,12.9172226 7.2900757,5.62714687 16.2505278,5.62714687 C17.4176633,5.62714687 18.3624367,6.57298419 18.3624367,7.74011977 C18.3624367,8.90512749 17.4176633,9.85096481 16.2505278,9.85096481 C9.6190272,9.85096481 4.22381794,15.2461741 4.22381794,21.8787386 C4.22381794,28.5091752 9.6190272,33.9043844 16.2505278,33.9043844 C17.4176633,33.9043844 18.3624367,34.8502218 18.3624367,36.0173573 C18.3624367,37.1823651 17.4176633,38.1282024 16.2505278,38.1282024" id="Fill-3"></path>
                <path d="M26.3411969,43.7564132 C25.1740613,43.7564132 24.2292879,42.8105759 24.2292879,41.6445042 C24.2292879,40.4773686 25.1740613,39.5315313 26.3411969,39.5315313 C36.075129,39.5315313 43.9950536,31.6126706 43.9950536,21.8787386 C43.9950536,12.1426786 36.075129,4.22381794 26.3411969,4.22381794 C25.1740613,4.22381794 24.2292879,3.27798062 24.2292879,2.11084504 C24.2292879,0.945837317 25.1740613,2.15451612e-13 26.3411969,2.15451612e-13 C38.4040805,2.15451612e-13 48.2188715,9.81479105 48.2188715,21.8787386 C48.2188715,33.9405582 38.4040805,43.7564132 26.3411969,43.7564132" id="Fill-4"></path>
            </g>
            <text id="EMQX-CLOUD" font-family="Roboto-Medium, Roboto" font-size="31" font-weight="400" fill="#3D4D70">
                <tspan x="0" y="90">EMQX CLOUD</tspan>
            </text>
        </g>
    </g>
</svg>