<?xml version="1.0" encoding="UTF-8"?>
<svg width="170px" height="26px" viewBox="0 0 170 26" version="1.1" xmlns="http://www.w3.org/2000/svg" xmlns:xlink="http://www.w3.org/1999/xlink">
    <title>logo  绿色</title>
    <g id="页面-1" stroke="none" stroke-width="1" fill="none" fill-rule="evenodd">
        <g id="cloud首页-无订阅" transform="translate(-404.000000, -88.000000)" fill="#00B173">
            <g id="编组备份-3" transform="translate(404.000000, 88.000000)">
                <path d="M58.0526621,18.965643 L58.0526621,17.2628428 L52.1543027,17.2628428 L52.1543027,13.216498 L57.1573754,13.216498 L57.1573754,11.5049205 L52.1543027,11.5049205 L52.1543027,7.89744176 L57.9912209,7.89744176 L57.9912209,6.18586425 L50.0214138,6.18586425 L50.0214138,18.965643 L58.0526621,18.965643 Z M62.1077842,18.965643 L62.1077842,9.6177966 L62.1604481,9.60024195 L65.7415949,18.965643 L67.2074075,18.965643 L70.727113,9.77578837 L70.7797769,9.78456569 L70.7797769,18.965643 L72.9126658,18.965643 L72.9126658,6.18586425 L70.1916965,6.18586425 L66.4964445,16.0164633 L66.4437806,16.0164633 L62.7748606,6.18586425 L59.9748953,6.18586425 L59.9748953,18.965643 L62.1077842,18.965643 Z M85.0429229,20.2910184 L86.4648488,19.0183069 L84.5777249,17.1399603 C84.9229661,16.6776881 85.1877487,16.1569004 85.3720724,15.5775973 C85.5563961,14.9982941 85.648558,14.3809559 85.648558,13.7255826 L85.648558,13.7255826 L85.648558,11.4259246 C85.648558,9.86941312 85.157028,8.57622122 84.1739681,7.54634894 C83.1909082,6.51647666 81.9181967,6.00154052 80.3558337,6.00154052 C78.8227283,6.00154052 77.5778117,6.51647666 76.6210838,7.54634894 C75.6643558,8.57622122 75.1859919,9.86941312 75.1859919,11.4259246 L75.1859919,11.4259246 L75.1859919,13.7255826 C75.1859919,15.2879457 75.6658187,16.5826005 76.6254724,17.609547 C77.5851261,18.6364935 78.8285799,19.1499667 80.3558337,19.1499667 C80.8766214,19.1499667 81.3710771,19.0885255 81.8392009,18.965643 C82.3073246,18.8427605 82.7432649,18.6613626 83.1470216,18.4214491 L83.1470216,18.4214491 L85.0429229,20.2910184 Z M80.3558337,17.4032799 C79.4195861,17.4032799 78.6793654,17.0595016 78.1351716,16.3719448 C77.5909777,15.684388 77.3188808,14.8022673 77.3188808,13.7255826 L77.3188808,13.7255826 L77.3188808,11.40837 C77.3188808,10.3433884 77.5895148,9.46858215 78.1307829,8.78395114 C78.672051,8.09932014 79.4137346,7.75700463 80.3558337,7.75700463 C81.3271905,7.75700463 82.0966689,8.09932014 82.664269,8.78395114 C83.2318691,9.46858215 83.5156691,10.3433884 83.5156691,11.40837 L83.5156691,11.40837 L83.5156691,13.7255826 C83.5156691,14.8081188 83.2333319,15.6917024 82.6686576,16.3763334 C82.1039834,17.0609644 81.333042,17.4032799 80.3558337,17.4032799 Z M94.2942187,18.965643 L97.0678521,14.1644487 L99.8414854,18.965643 L102.404463,18.965643 L98.3230089,12.5230897 L102.255249,6.18586425 L99.7273802,6.18586425 L97.0327428,10.9080627 L94.3644373,6.18586425 L91.8541236,6.18586425 L95.7863632,12.5230897 L91.7663504,18.965643 L94.2942187,18.965643 Z M113.174235,19.1499667 C114.637122,19.1499667 115.798654,18.7535244 116.658832,17.9606398 C117.519009,17.1677552 117.937395,16.1276427 117.913988,14.8403023 L117.913988,14.8403023 L117.896434,14.7876384 L115.842541,14.7876384 C115.842541,15.6478158 115.615793,16.3061149 115.162298,16.7625355 C114.708804,17.2189562 114.046116,17.4471665 113.174235,17.4471665 C112.2848,17.4471665 111.582615,17.1033882 111.067678,16.4158314 C110.552742,15.7282746 110.295274,14.8549312 110.295274,13.7958012 L110.295274,13.7958012 L110.295274,11.3469287 C110.295274,10.2995018 110.548354,9.43200998 111.054512,8.7444532 C111.560671,8.05689642 112.246765,7.71311803 113.112794,7.71311803 C114.008081,7.71311803 114.68686,7.93986548 115.149132,8.39336038 C115.611405,8.84685527 115.842541,9.50076566 115.842541,10.3550915 L115.842541,10.3550915 L117.905211,10.3550915 L117.922766,10.3024276 C117.946172,8.96827487 117.526323,7.91792218 116.66322,7.15136951 C115.800117,6.38481685 114.616642,6.00154052 113.112794,6.00154052 C111.644056,6.00154052 110.453266,6.50623645 109.540425,7.51562832 C108.627583,8.52502018 108.171163,9.80797188 108.171163,11.3644834 L108.171163,11.3644834 L108.171163,13.7958012 C108.171163,15.3581643 108.633435,16.6411159 109.557979,17.6446563 C110.482524,18.6481966 111.687942,19.1499667 113.174235,19.1499667 Z M128.086903,18.965643 L128.086903,17.2628428 L122.10077,17.2628428 L122.10077,6.18586425 L119.967881,6.18586425 L119.967881,18.965643 L128.086903,18.965643 Z M134.208417,19.1499667 C135.776632,19.1499667 137.050806,18.6364935 138.03094,17.609547 C139.011074,16.5826005 139.501141,15.2879457 139.501141,13.7255826 L139.501141,13.7255826 L139.501141,11.4259246 C139.501141,9.86941312 139.009611,8.57622122 138.026551,7.54634894 C137.043492,6.51647666 135.77078,6.00154052 134.208417,6.00154052 C132.675312,6.00154052 131.430395,6.51647666 130.473667,7.54634894 C129.516939,8.57622122 129.038575,9.86941312 129.038575,11.4259246 L129.038575,11.4259246 L129.038575,13.7255826 C129.038575,15.2879457 129.518402,16.5826005 130.478056,17.609547 C131.437709,18.6364935 132.681163,19.1499667 134.208417,19.1499667 Z M134.208417,17.4032799 C133.272169,17.4032799 132.531949,17.0595016 131.987755,16.3719448 C131.443561,15.684388 131.171464,14.8022673 131.171464,13.7255826 L131.171464,13.7255826 L131.171464,11.40837 C131.171464,10.3433884 131.442098,9.46858215 131.983366,8.78395114 C132.524634,8.09932014 133.266318,7.75700463 134.208417,7.75700463 C135.179774,7.75700463 135.949252,8.09932014 136.516852,8.78395114 C137.084452,9.46858215 137.368252,10.3433884 137.368252,11.40837 L137.368252,11.40837 L137.368252,13.7255826 C137.368252,14.8081188 137.085915,15.6917024 136.521241,16.3763334 C135.956567,17.0609644 135.185625,17.4032799 134.208417,17.4032799 Z M146.51422,19.1499667 C147.98881,19.1499667 149.192766,18.7476729 150.126088,17.9430852 C151.05941,17.1384974 151.52607,16.0252406 151.52607,14.6033147 L151.52607,14.6033147 L151.52607,6.18586425 L149.393182,6.18586425 L149.393182,14.6033147 C149.393182,15.5103045 149.129862,16.2110272 148.603223,16.705483 C148.076583,17.1999387 147.380249,17.4471665 146.51422,17.4471665 C145.677449,17.4471665 145.004521,17.1999387 144.495437,16.705483 C143.986352,16.2110272 143.73181,15.5103045 143.73181,14.6033147 L143.73181,14.6033147 L143.73181,6.18586425 L141.598921,6.18586425 L141.598921,14.6033147 C141.598921,16.0252406 142.055342,17.1384974 142.968183,17.9430852 C143.881024,18.7476729 145.063037,19.1499667 146.51422,19.1499667 Z M158.240721,18.965643 C159.861599,18.965643 161.17966,18.46241 162.194904,17.4559439 C163.210147,16.4494778 163.717769,15.1475086 163.717769,13.5500362 L163.717769,13.5500362 L163.717769,11.6102484 C163.717769,10.0186276 163.210147,8.71665835 162.194904,7.70434071 C161.17966,6.69202307 159.861599,6.18586425 158.240721,6.18586425 L158.240721,6.18586425 L154.01883,6.18586425 L154.01883,18.965643 L158.240721,18.965643 Z M158.240721,17.2628428 L156.151718,17.2628428 L156.151718,7.89744176 L158.240721,7.89744176 C159.264741,7.89744176 160.078106,8.24414593 160.680816,8.93755425 C161.283525,9.63096258 161.58488,10.5160091 161.58488,11.5926937 L161.58488,11.5926937 L161.58488,13.5500362 C161.58488,14.638424 161.283525,15.529322 160.680816,16.2227303 C160.078106,16.9161387 159.264741,17.2628428 158.240721,17.2628428 L158.240721,17.2628428 Z" id="EMQXCLOUD" fill-rule="nonzero"></path>
                <g id="编组-58">
                    <path d="M28.7284606,22.6557249 C28.0355825,22.6557249 27.4735672,22.0937097 27.4735672,21.4014638 C27.4735672,20.7079534 28.0355825,20.1459382 28.7284606,20.1459382 C32.6688891,20.1459382 35.8747149,16.9401123 35.8747149,13.0003161 C35.8747149,9.05925548 32.6688891,5.85342962 28.7284606,5.85342962 C28.0355825,5.85342962 27.4735672,5.2914144 27.4735672,4.59916843 C27.4735672,3.90565808 28.0355825,3.34364286 28.7284606,3.34364286 C34.0527488,3.34364286 38.3845017,7.67539573 38.3845017,13.0003161 C38.3845017,18.3239721 34.0527488,22.6557249 28.7284606,22.6557249" id="Fill-2"></path>
                    <path d="M9.65604104,22.6557249 C4.33175286,22.6557249 4.49196662e-15,18.3239721 4.49196662e-15,13.0003161 C4.49196662e-15,7.67539573 4.33175286,3.34364286 9.65604104,3.34364286 C10.3495514,3.34364286 10.9109344,3.90565808 10.9109344,4.59916843 C10.9109344,5.2914144 10.3495514,5.85342962 9.65604104,5.85342962 C5.71561261,5.85342962 2.50978676,9.05925548 2.50978676,13.0003161 C2.50978676,16.9401123 5.71561261,20.1459382 9.65604104,20.1459382 C10.3495514,20.1459382 10.9109344,20.7079534 10.9109344,21.4014638 C10.9109344,22.0937097 10.3495514,22.6557249 9.65604104,22.6557249" id="Fill-3"></path>
                    <path d="M15.6519026,26 C14.9583923,26 14.3970093,25.4379848 14.3970093,24.7451066 C14.3970093,24.0515963 14.9583923,23.4895811 15.6519026,23.4895811 C21.4357916,23.4895811 26.1417998,18.784205 26.1417998,13.0003161 C26.1417998,7.21516279 21.4357916,2.50978676 15.6519026,2.50978676 C14.9583923,2.50978676 14.3970093,1.94777154 14.3970093,1.25426119 C14.3970093,0.562015221 14.9583923,1.28021049e-13 15.6519026,1.28021049e-13 C22.8196513,1.28021049e-13 28.6515865,5.83193523 28.6515865,13.0003161 C28.6515865,20.1674326 22.8196513,26 15.6519026,26" id="Fill-4"></path>
                </g>
            </g>
        </g>
    </g>
</svg>