<?xml version="1.0" encoding="utf-8"?>
<!-- Generator: Adobe Illustrator 24.3.0, SVG Export Plug-In . SVG Version: 6.00 Build 0)  -->
<svg version="1.1" xmlns="http://www.w3.org/2000/svg" xmlns:xlink="http://www.w3.org/1999/xlink" x="0px" y="0px"
	 viewBox="0 0 800 800" style="enable-background:new 0 0 800 800;" xml:space="preserve">
<style type="text/css">
	.st0{display:none;}
	.st1{display:inline;}
	.st2{display:inline;fill-rule:evenodd;clip-rule:evenodd;}
	.st3{display:inline;fill:#A91917;}
	.st4{display:inline;fill-rule:evenodd;clip-rule:evenodd;fill:#A91917;}
	.st5{fill:#FFC000;}
	.st6{fill:#FFFFFF;}
	.st7{fill-rule:evenodd;clip-rule:evenodd;fill:#FFC000;}
	.st8{fill-rule:evenodd;clip-rule:evenodd;fill:#FFFFFF;}
	.st9{fill:none;}
	.st10{fill-rule:evenodd;clip-rule:evenodd;}
	.st11{opacity:0.5;fill:#FFFFFF;}
	.st12{fill:#676767;}
	.st13{fill:url(#SVGID_1_);}
	.st14{fill:url(#SVGID_2_);}
	.st15{fill:url(#SVGID_3_);}
	.st16{fill:url(#SVGID_4_);}
	.st17{fill:url(#SVGID_5_);}
	.st18{fill:url(#SVGID_6_);}
	.st19{fill:url(#SVGID_7_);}
	.st20{fill:url(#SVGID_8_);}
	.st21{fill:url(#SVGID_9_);}
	.st22{fill:url(#SVGID_10_);}
	.st23{fill:url(#SVGID_11_);}
	.st24{fill:#333333;}
	.st25{fill:url(#SVGID_12_);}
	.st26{opacity:0.2;}
	.st27{fill:url(#SVGID_13_);}
	.st28{fill:url(#SVGID_14_);}
	.st29{fill:url(#SVGID_15_);}
	.st30{fill:url(#SVGID_16_);}
	.st31{fill:url(#SVGID_17_);}
	.st32{fill:url(#SVGID_18_);}
	.st33{fill:url(#SVGID_19_);}
	.st34{fill:url(#SVGID_20_);}
	.st35{fill:url(#SVGID_21_);}
	.st36{fill:url(#SVGID_22_);}
	.st37{fill:url(#SVGID_23_);}
	.st38{fill:url(#SVGID_24_);}
	.st39{fill:url(#SVGID_25_);}
	.st40{fill:url(#SVGID_26_);}
	.st41{fill:url(#SVGID_27_);}
	.st42{fill:url(#SVGID_28_);}
	.st43{fill:url(#SVGID_29_);}
	.st44{fill:url(#SVGID_30_);}
	.st45{fill:url(#SVGID_31_);}
	.st46{fill:url(#SVGID_32_);}
	.st47{fill:url(#SVGID_33_);}
	.st48{fill:url(#SVGID_34_);}
	.st49{fill:url(#SVGID_35_);}
	.st50{fill:url(#SVGID_36_);}
	.st51{clip-path:url(#SVGID_38_);}
	.st52{clip-path:url(#SVGID_40_);}
	.st53{clip-path:url(#SVGID_42_);}
	.st54{clip-path:url(#SVGID_44_);}
	.st55{clip-path:url(#SVGID_46_);}
	.st56{fill:url(#SVGID_47_);}
	.st57{fill:url(#SVGID_48_);}
	.st58{fill:url(#SVGID_49_);}
	.st59{fill:url(#SVGID_50_);}
	.st60{fill:url(#SVGID_51_);}
	.st61{fill:url(#SVGID_52_);}
	.st62{fill:url(#SVGID_53_);}
	.st63{fill:url(#SVGID_54_);}
	.st64{fill:url(#SVGID_55_);}
	.st65{fill:url(#SVGID_56_);}
	.st66{fill:url(#SVGID_57_);}
	.st67{fill:url(#SVGID_58_);}
</style>
<g id="non-print-backgrounds" class="st0">
</g>
<g id="Logos">
	<g>
		<g>
			<path d="M140,634.6v123.9c0,2.8-2.4,5.1-5.3,5.1l-27.7-0.2c0-48.4,0-48.4,0-48.4c0-2.8-2.4-5.1-5.3-5.1H57.4
				c-2.9,0-5.3,2.3-5.3,5.1l-0.2,48.4c-26.4,0-27.6,0.2-27.6,0.2c-2.9,0-5.3-2.3-5.3-5.1V634.6c0-2.8,2.4-5.1,5.3-5.1l27.6,0.2
				c0,46.8,0.2,47.8,0.2,47.8c0,2.8,2.4,5.1,5.3,5.1h44.3c2.9,0,5.3-2.3,5.3-5.1l-0.1-47.9c30.9,0,27.8-0.1,27.8-0.1
				C137.6,629.5,140,631.8,140,634.6z"/>
			<path d="M174.1,645.1h19.9c2.6,0,4.7,2,4.7,4.5v109.7c0,2.5-2.1,4.5-4.7,4.5h-19.9c-2.6,0-4.7-2-4.7-4.5V649.6
				C169.4,647.1,171.5,645.1,174.1,645.1z"/>
			<path d="M337.8,651.1l-39.8,111.2c-0.7,1.8-2.4,3.1-4.4,3.1h-30.4c-2,0-3.8-1.2-4.4-3l-40-111.2c-1.1-2.9,1.2-6,4.4-6h20.1
				c2,0,3.8,1.2,4.5,3.1l26.2,75.1c1.4,4.1,7.5,4.1,8.9,0l26-75.1c0.6-1.8,2.4-3.1,4.5-3.1h20.1
				C336.5,645.1,338.8,648.1,337.8,651.1z"/>
			<path d="M440.1,745.8v13.5c0,2.5-2.1,4.5-4.7,4.5h-72.9c-2.6,0-4.7-2-4.7-4.5V649.6c0-2.5,2.1-4.5,4.7-4.5h72.1
				c2.6,0,4.7,2,4.7,4.5v13.5c0,2.5-2.1,4.5-4.7,4.5h-42.8c-2.6,0-4.7,2-4.7,4.5c0,0-0.1-0.1-0.1,20.7c0,0-0.6,0.1,43.8,0.1l0,22.2
				c-45.9,0-44,0.2-44,0.2c0,21.8,0.2,21.4,0.2,21.4c0,2.5,2.1,4.5,4.7,4.5h43.6C438,741.3,440.1,743.3,440.1,745.8z"/>
			<path d="M616.9,634.6v123.9c0,2.8-2.4,5.1-5.3,5.1h-22.4c-2.9,0-5.3-2.3-5.3-5.1l-0.3-78.7c0-5-29.7,37.2-29.7,37.2
				c-1,1.4-2.6,2.2-4.4,2.2h-10.9c-1.8,0-3.4-0.8-4.4-2.2c0,0-29.4-42.5-29.4-37.5l0.2,79c0,2.8-2.4,5.1-5.3,5.1h-22.4
				c-2.9,0-5.3-2.3-5.3-5.1V634.6c0-2.8,2.4-5.1,5.3-5.1h30c1.8,0,3.4,0.9,4.4,2.3l28.3,40.9c2.1,3,6.7,3,8.8,0l28.3-40.9
				c1-1.4,2.6-2.3,4.4-2.3h30C614.5,629.5,616.9,631.8,616.9,634.6z"/>
			<path d="M775,728.1c-3.3,7.9-8,14.7-14,20.3c-2,1.9-2.1,5-0.2,7l18.3,19.3c-33.5,0-35.3,0.2-35.3,0.2c-1.6,0-3-0.7-4-1.8l-6-6.8
				c-1.3-1.5-3.4-2.1-5.3-1.6c-5.8,1.3-12,1.9-18.8,1.9c-15.4,0-28.5-3-39.3-9.1c-10.8-6.1-18.9-14.4-24.2-25
				c-5.4-10.6-8.1-22.5-8.1-35.8c0-13.1,2.7-24.9,8.1-35.4c5.4-10.5,13.5-18.8,24.2-25s23.9-9.3,39.3-9.3c15.2,0,28.2,3.1,38.9,9.3
				c10.8,6.2,18.9,14.6,24.3,25.1c5.4,10.6,8.2,22.3,8.2,35.3C781,708.2,779,718.7,775,728.1z M681.5,728
				c6.5,7.8,15.8,11.8,28.1,11.8h0.4l-8.6-9.6c-3-3.3-0.5-8.5,4-8.5h22.7c1.5,0,3,0.6,4,1.8l0,0c2.4,2.6,6,4.9,7.8,1.9
				c1.5-2.5,3.6-7.9,4.6-11c1.8-5.5,2.8-11.5,2.8-18.1c0-8.1-1.5-15.4-4.4-21.8s-7.3-11.4-12.9-15c-5.7-3.7-12.5-5.5-20.3-5.5
				c-12.1,0-21.4,4-28,11.9c-6.5,7.9-9.8,18.2-9.8,31C671.8,709.8,675,720.2,681.5,728z"/>
		</g>
		<circle class="st7" cx="400.2" cy="306.1" r="260.3"/>
		<path d="M400,589c-155.5,0-282-126.5-282-282S244.5,25,400,25s282,126.5,282,282S555.5,589,400,589z M400,48.8
			c-142.3,0-258.1,115.8-258.1,258.1S257.6,565.1,400,565.1S658.1,449.3,658.1,307S542.3,48.8,400,48.8z"/>
		<g>
			<path class="st10" d="M343.6,378.9c2.8,9.2,7.1,17.8,13,25.3h88.7c6-7.5,10.3-16.1,13-25.3H343.6z M530.9,287.5
				c-2.8,2.6-2.9,7-0.3,9.9l1,1.1c40.3-34.4,64.6-61,52.5-82c-13.3-18.5-69.4-9.8-138.1,21.2c3.5-7,5.2-14.7,5.2-22.3
				c0-2.8-0.2-5.7-0.7-8.5c-1.6-9.9-6.3-19.4-13.9-26.9c-4.1-4.2-8.9-7.4-13.9-9.8l0.2-0.5h0l5.3-11.5c0.8-1.8,0-4-1.8-4.9
				c-1.8-0.8-4,0-4.9,1.8l-5.7,12.4c-9.5-2.9-19.8-2.9-29.3,0l-5.7-12.4c-0.8-1.8-3-2.6-4.9-1.8c-1.8,0.8-2.6,3-1.8,4.9l5.1,11.1
				l0.4,0.9c-5,2.4-9.8,5.7-13.9,9.8c-10,10-14.8,23.2-14.6,36.3c0.1,7.1,1.7,14.2,4.9,20.8c-17.8-8-116.5-48.8-136.4-21
				c-18,25.4,37.3,69.8,52.1,82.4l1-1.1c2.6-2.8,2.4-7.2-0.3-9.9c-7.3-6.8-18.7-18.1-26.6-29.1c-10.4-14.5-10.7-23-5.7-27.7
				c15.7-14.8,74,4.8,92.1,11.7c17.4,6.7,36.1,15.1,55.4,25.3c-92.4,53.6-155.2,117.6-140.4,143.3c9.3,16.1,48,14,97.6-3.5l-1.8-2.9
				c-1.7-2.8-4.9-4.1-8.1-3.1c-34.5,10.4-55.9,15.4-63.3,4.3c-10.4-17.9,42.2-79.7,123.8-126.9l6.1-3.5c2.1,1.1,4.1,2.3,6.2,3.5
				c81.7,47.1,134.2,108.9,123.8,126.9c-7.4,11.1-28.9,6.1-63.3-4.3c-3.1-1-6.4,0.3-8.1,3.1l-1.8,2.9c49.7,17.5,88.3,19.6,97.6,3.5
				c14.8-25.7-48-89.7-140.4-143.3c65.1-34.3,123.7-49.6,145.2-38.6C580.1,238.8,546.2,273,530.9,287.5z M359.2,221.8
				c-3-18.6,6.8-37.2,23.9-45.1C386.2,195.3,376.3,213.8,359.2,221.8z M442.4,221.8c-17.1-8-26.9-26.5-23.9-45.1
				C435.5,184.6,445.4,203.2,442.4,221.8z M457.4,327.2c-17-12.4-35.9-24.9-56.4-36.8c-20.4,11.9-39.4,24.4-56.3,36.8
				c-3.4,9.7-4.9,20.2-4.5,30.5h121.7C462.2,347.3,460.7,336.9,457.4,327.2z M376,425.4c7.6,8,13.6,15.1,25,35.7
				c11.4-20.6,17.4-27.7,25-35.7H376z"/>
			<path class="st8" d="M359.2,221.8c-3-18.6,6.8-37.2,23.9-45.1C386.2,195.3,376.3,213.8,359.2,221.8z"/>
			<path class="st8" d="M274.1,293.9c0,0,1.5-3.6-2-6.8c-15.3-14.5-49.2-48.7-29.9-58.5c21.5-10.9,80.2,4.7,145.3,39
				c-32.8,19-55.3,34.7-79.1,53.9C282.2,302.2,277.5,297.9,274.1,293.9z"/>
			<path class="st8" d="M531.3,406c-7.4,11.1-28.9,6.1-63.3-4.3c-1.6-0.5-3.1-0.4-4.6,0.2c10.5-15.3,12.8-43.4,9.1-63.9
				c0-0.1,0-0.2,0-0.3c0-0.1,0-0.1,0-0.2c-1.1-8-2.9-14.4-4.9-17.2C513.4,357.1,538.9,393,531.3,406z"/>
			<path class="st8" d="M495.1,321.8c-23.2-19.5-46.7-35.2-79.6-54.2c65.1-34.3,123.7-49.6,145.2-38.6c19.3,9.8-14.6,44-29.9,58.5
				c-2.7,2.6-2.1,3.7-2,6.8C525.5,298.3,521.4,302.6,495.1,321.8z"/>
			<path class="st8" d="M335.4,319.8c-2,2.8-3.8,9.2-4.9,17.2c0,0,0,0.1,0,0.2c0,0.1,0,0.2,0,0.3c-3.7,20.5-1.4,48.6,9.1,63.9
				c-1.4-0.6-3-0.6-4.6-0.2c-34.5,10.4-55.9,15.4-63.3,4.3C264.1,392.6,289.6,356.6,335.4,319.8z"/>
			<path class="st8" d="M442.4,221.8c-17.1-8-26.9-26.5-23.9-45.1C435.5,184.6,445.4,203.2,442.4,221.8z"/>
		</g>
	</g>
</g>
</svg>
