<?xml version="1.0" encoding="utf-8"?>
<!-- Generator: Adobe Illustrator 24.1.0, SVG Export Plug-In . SVG Version: 6.00 Build 0)  -->
<svg version="1.1" xmlns="http://www.w3.org/2000/svg" xmlns:xlink="http://www.w3.org/1999/xlink" x="0px" y="0px"
	 viewBox="0 0 800 940" style="enable-background:new 0 0 800 940;" xml:space="preserve">
<style type="text/css">
	.st0{display:none;}
	.st1{display:inline;}
	.st2{display:inline;fill-rule:evenodd;clip-rule:evenodd;}
	.st3{display:inline;fill:#A91917;}
	.st4{display:inline;fill-rule:evenodd;clip-rule:evenodd;fill:#A91917;}
	.st5{fill-rule:evenodd;clip-rule:evenodd;fill:#FFC000;}
	.st6{fill-rule:evenodd;clip-rule:evenodd;fill:#FFFFFF;}
	.st7{fill:none;}
	.st8{fill-rule:evenodd;clip-rule:evenodd;}
	.st9{fill:#FFC000;}
	.st10{opacity:0.5;fill:#FFFFFF;}
	.st11{fill:#FFFFFF;}
	.st12{fill:#676767;}
	.st13{fill:url(#SVGID_1_);}
	.st14{fill:url(#SVGID_2_);}
	.st15{fill:url(#SVGID_3_);}
	.st16{fill:url(#SVGID_4_);}
	.st17{fill:url(#SVGID_5_);}
	.st18{fill:url(#SVGID_6_);}
	.st19{fill:url(#SVGID_7_);}
	.st20{fill:url(#SVGID_8_);}
	.st21{fill:url(#SVGID_9_);}
	.st22{fill:url(#SVGID_10_);}
	.st23{fill:url(#SVGID_11_);}
	.st24{fill:#333333;}
	.st25{fill:url(#SVGID_12_);}
	.st26{opacity:0.2;}
	.st27{fill:url(#SVGID_13_);}
	.st28{fill:url(#SVGID_14_);}
	.st29{fill:url(#SVGID_15_);}
	.st30{fill:url(#SVGID_16_);}
	.st31{fill:url(#SVGID_17_);}
	.st32{fill:url(#SVGID_18_);}
	.st33{fill:url(#SVGID_19_);}
	.st34{fill:url(#SVGID_20_);}
	.st35{fill:url(#SVGID_21_);}
	.st36{fill:url(#SVGID_22_);}
	.st37{fill:url(#SVGID_23_);}
	.st38{fill:url(#SVGID_24_);}
	.st39{fill:url(#SVGID_25_);}
	.st40{fill:url(#SVGID_26_);}
	.st41{fill:url(#SVGID_27_);}
	.st42{fill:url(#SVGID_28_);}
	.st43{fill:url(#SVGID_29_);}
	.st44{fill:url(#SVGID_30_);}
	.st45{fill:url(#SVGID_31_);}
	.st46{fill:url(#SVGID_32_);}
	.st47{fill:url(#SVGID_33_);}
	.st48{fill:url(#SVGID_34_);}
	.st49{fill:url(#SVGID_35_);}
	.st50{fill:url(#SVGID_36_);}
	.st51{fill:url(#SVGID_37_);}
	.st52{fill:url(#SVGID_38_);}
	.st53{fill:url(#SVGID_39_);}
	.st54{fill:url(#SVGID_40_);}
	.st55{fill:url(#SVGID_41_);}
	.st56{fill:url(#SVGID_42_);}
	.st57{fill:url(#SVGID_43_);}
	.st58{fill:url(#SVGID_44_);}
	.st59{fill:url(#SVGID_45_);}
	.st60{fill:url(#SVGID_46_);}
	.st61{fill:url(#SVGID_47_);}
	.st62{fill:url(#SVGID_48_);}
	.st63{clip-path:url(#SVGID_50_);}
	.st64{clip-path:url(#SVGID_52_);}
	.st65{clip-path:url(#SVGID_54_);}
</style>
<g id="non-print-backgrounds" class="st0">
</g>
<g id="Logos">
	<g>
		<g>
			<path d="M274.4,880.7c-1.1,9.6-4.7,17.1-10.7,22.3c-6,5.2-13.9,7.8-23.8,7.8c-10.8,0-19.4-3.9-25.8-11.6
				c-6.5-7.7-9.7-18-9.7-30.9v-8.8c0-8.5,1.5-15.9,4.5-22.3c3-6.4,7.3-11.3,12.8-14.8c5.5-3.4,12-5.2,19.2-5.2
				c9.7,0,17.4,2.7,23.2,8.1c5.8,5.4,9.2,12.9,10.2,22.4h-12.1c-1-7.3-3.3-12.5-6.8-15.8c-3.5-3.3-8.3-4.9-14.6-4.9
				c-7.7,0-13.7,2.8-18,8.5c-4.4,5.7-6.5,13.7-6.5,24.2v8.8c0,9.9,2.1,17.7,6.2,23.6s9.9,8.8,17.3,8.8c6.7,0,11.8-1.5,15.3-4.5
				c3.6-3,5.9-8.3,7.1-15.8H274.4z"/>
			<path d="M303.4,899.8h43.1v9.8h-55.2v-91h12.1V899.8z"/>
			<path d="M426.8,867c0,8.9-1.5,16.7-4.5,23.3c-3,6.6-7.2,11.7-12.8,15.2s-11.9,5.2-19.2,5.2c-7.2,0-13.5-1.8-19.1-5.3
				c-5.5-3.5-9.8-8.5-12.9-15.1c-3.1-6.5-4.6-14.1-4.7-22.7v-6.6c0-8.8,1.5-16.5,4.6-23.2c3-6.7,7.3-11.8,12.9-15.4
				s11.9-5.3,19.1-5.3c7.3,0,13.7,1.8,19.3,5.3c5.6,3.5,9.8,8.6,12.8,15.3s4.5,14.5,4.5,23.3V867z M414.9,861.1
				c0-10.8-2.2-19.1-6.5-24.8c-4.3-5.8-10.4-8.7-18.2-8.7c-7.6,0-13.6,2.9-17.9,8.7c-4.4,5.8-6.6,13.8-6.7,24v6.7
				c0,10.5,2.2,18.7,6.6,24.7c4.4,6,10.4,9,18.2,9c7.8,0,13.8-2.8,18-8.5c4.2-5.6,6.4-13.7,6.6-24.3V861.1z"/>
			<path d="M509.5,818.6v61.9c0,8.6-2.7,15.6-8.1,21.1c-5.4,5.5-12.6,8.5-21.8,9.2l-3.2,0.1c-10,0-17.9-2.7-23.8-8.1
				c-5.9-5.4-8.9-12.8-9-22.2v-62h11.9v61.6c0,6.6,1.8,11.7,5.4,15.3c3.6,3.6,8.8,5.5,15.5,5.5c6.8,0,12-1.8,15.6-5.4
				c3.6-3.6,5.4-8.7,5.4-15.3v-61.7H509.5z"/>
			<path d="M529.1,909.6v-91h25.7c7.9,0,14.9,1.8,21,5.2c6.1,3.5,10.8,8.5,14.1,14.9c3.3,6.5,5,13.9,5,22.2v5.8
				c0,8.6-1.7,16.1-5,22.6c-3.3,6.5-8,11.4-14.2,14.9c-6.1,3.5-13.3,5.2-21.5,5.3H529.1z M541.1,828.4v71.4h12.6
				c9.2,0,16.4-2.9,21.6-8.6c5.1-5.8,7.7-14,7.7-24.6v-5.3c0-10.3-2.4-18.4-7.3-24.1c-4.9-5.7-11.7-8.6-20.7-8.7H541.1z"/>
		</g>
		<g>
			<path d="M140,659v123.9c0,2.8-2.4,5.1-5.3,5.1l-27.7-0.2c0-48.4,0-48.4,0-48.4c0-2.8-2.4-5.1-5.3-5.1H57.4
				c-2.9,0-5.3,2.3-5.3,5.1l-0.2,48.4c-26.4,0-27.6,0.2-27.6,0.2c-2.9,0-5.3-2.3-5.3-5.1V659c0-2.8,2.4-5.1,5.3-5.1l27.6,0.2
				c0,46.8,0.2,47.8,0.2,47.8c0,2.8,2.4,5.1,5.3,5.1h44.3c2.9,0,5.3-2.3,5.3-5.1l-0.1-47.9c30.9,0,27.8-0.1,27.8-0.1
				C137.6,653.9,140,656.2,140,659z"/>
			<path d="M174.1,669.4h19.9c2.6,0,4.7,2,4.7,4.5v109.7c0,2.5-2.1,4.5-4.7,4.5h-19.9c-2.6,0-4.7-2-4.7-4.5V674
				C169.4,671.5,171.5,669.4,174.1,669.4z"/>
			<path d="M337.8,675.4l-39.8,111.2c-0.7,1.8-2.4,3.1-4.4,3.1h-30.4c-2,0-3.8-1.2-4.4-3l-40-111.2c-1.1-2.9,1.2-6,4.4-6h20.1
				c2,0,3.8,1.2,4.5,3.1l26.2,75.1c1.4,4.1,7.5,4.1,8.9,0l26-75.1c0.6-1.8,2.4-3.1,4.5-3.1h20.1
				C336.5,669.4,338.8,672.5,337.8,675.4z"/>
			<path d="M440.1,770.2v13.5c0,2.5-2.1,4.5-4.7,4.5h-72.9c-2.6,0-4.7-2-4.7-4.5V674c0-2.5,2.1-4.5,4.7-4.5h72.1
				c2.6,0,4.7,2,4.7,4.5v13.5c0,2.5-2.1,4.5-4.7,4.5h-42.8c-2.6,0-4.7,2-4.7,4.5c0,0-0.1-0.1-0.1,20.7c0,0-0.6,0.1,43.8,0.1l0,22.2
				c-45.9,0-44,0.2-44,0.2c0,21.8,0.2,21.4,0.2,21.4c0,2.5,2.1,4.5,4.7,4.5h43.6C438,765.7,440.1,767.7,440.1,770.2z"/>
			<path d="M616.9,659v123.9c0,2.8-2.4,5.1-5.3,5.1h-22.4c-2.9,0-5.3-2.3-5.3-5.1l-0.3-78.7c0-5-29.7,37.2-29.7,37.2
				c-1,1.4-2.6,2.2-4.4,2.2h-10.9c-1.8,0-3.4-0.8-4.4-2.2c0,0-29.4-42.5-29.4-37.5l0.2,79c0,2.8-2.4,5.1-5.3,5.1h-22.4
				c-2.9,0-5.3-2.3-5.3-5.1V659c0-2.8,2.4-5.1,5.3-5.1h30c1.8,0,3.4,0.9,4.4,2.3l28.3,40.9c2.1,3,6.7,3,8.8,0l28.3-40.9
				c1-1.4,2.6-2.3,4.4-2.3h30C614.5,653.9,616.9,656.2,616.9,659z"/>
			<path d="M775,752.5c-3.3,7.9-8,14.7-14,20.3c-2,1.9-2.1,5-0.2,7l18.3,19.3c-33.5,0-35.3,0.2-35.3,0.2c-1.6,0-3-0.7-4-1.8l-6-6.8
				c-1.3-1.5-3.4-2.1-5.3-1.6c-5.8,1.3-12,1.9-18.8,1.9c-15.4,0-28.5-3-39.3-9.1c-10.8-6.1-18.9-14.4-24.2-25
				c-5.4-10.6-8.1-22.5-8.1-35.8c0-13.1,2.7-24.9,8.1-35.4c5.4-10.5,13.5-18.8,24.2-25s23.9-9.3,39.3-9.3c15.2,0,28.2,3.1,38.9,9.3
				c10.8,6.2,18.9,14.6,24.3,25.1c5.4,10.6,8.2,22.3,8.2,35.3C781,732.6,779,743,775,752.5z M681.5,752.4
				c6.5,7.8,15.8,11.8,28.1,11.8h0.4l-8.6-9.6c-3-3.3-0.5-8.5,4-8.5h22.7c1.5,0,3,0.6,4,1.8l0,0c2.4,2.6,6,4.9,7.8,1.9
				c1.5-2.5,3.6-7.9,4.6-11c1.8-5.5,2.8-11.5,2.8-18.1c0-8.1-1.5-15.4-4.4-21.8s-7.3-11.4-12.9-15c-5.7-3.7-12.5-5.5-20.3-5.5
				c-12.1,0-21.4,4-28,11.9c-6.5,7.9-9.8,18.2-9.8,31C671.8,734.1,675,744.5,681.5,752.4z"/>
		</g>
		<path d="M399.8,590.8C245,590.8,119,464.9,119,310S245,29.2,399.8,29.2s280.8,126,280.8,280.8S554.7,590.8,399.8,590.8z
			 M399.8,52.9c-141.8,0-257.1,115.3-257.1,257.1s115.3,257.1,257.1,257.1S656.9,451.8,656.9,310S541.6,52.9,399.8,52.9z"/>
		<circle class="st5" cx="400" cy="309.1" r="259.2"/>
		<g>
			<path class="st6" d="M358.1,180.5c-3-18.4,6.8-36.9,23.8-44.7C384.8,154.2,375,172.6,358.1,180.5z"/>
			<path class="st6" d="M273.5,252.1c0,0,1.5-3.5-2-6.8C256.4,231,222.8,197,242,187.3c21.3-10.9,79.6,4.7,144.2,38.7
				c-32.6,18.9-54.9,34.4-78.5,53.4C281.6,260.3,276.9,256,273.5,252.1z"/>
			<path class="st6" d="M528.9,363.3c-7.4,11-28.7,6.1-62.8-4.3c-1.6-0.5-3.1-0.4-4.5,0.2c10.4-15.1,12.7-43,9.1-63.4
				c0-0.1,0-0.2,0-0.3c0-0.1,0-0.1,0-0.2c-1.1-8-2.8-14.3-4.9-17.1C511.1,314.8,536.4,350.5,528.9,363.3z"/>
			<path class="st6" d="M492.9,279.8c-23-19.3-46.4-35-78.9-53.8c64.6-34,122.7-49.2,144.1-38.3c19.2,9.8-14.5,43.7-29.6,58.1
				c-2.7,2.5-2,3.7-2,6.8C523,256.5,519,260.7,492.9,279.8z"/>
			<path class="st6" d="M334.4,277.8c-2,2.8-3.8,9.1-4.9,17.1c0,0,0,0.1,0,0.2c0,0.1,0,0.2,0,0.3c-3.6,20.3-1.4,48.2,9.1,63.4
				c-1.4-0.6-3-0.6-4.5-0.2c-34.2,10.4-55.5,15.3-62.8,4.3C263.6,350,289,314.3,334.4,277.8z"/>
			<path d="M399.5,418c11.3-20.5,17.3-27.5,24.8-35.4h-49.6C382.3,390.5,388.2,397.5,399.5,418z"/>
			<path d="M342.5,336.4c2.7,9.1,7.1,17.7,12.9,25.1h88c5.9-7.4,10.2-16,12.9-25.1H342.5z"/>
			<path d="M455.4,285.1c-16.9-12.3-35.7-24.7-55.9-36.5c-20.3,11.8-39.1,24.2-55.9,36.5c-3.3,9.6-4.8,20-4.5,30.2h120.8
				C460.2,305.1,458.7,294.7,455.4,285.1z"/>
			<path class="st8" d="M528.4,245.7c-2.8,2.6-2.9,7-0.3,9.8l0.9,1.1c40-34.2,64.1-60.6,52.1-81.4c-13.2-18.4-68.8-9.7-137.1,21
				c3.5-6.9,5.2-14.6,5.2-22.2c0-2.8-0.2-5.6-0.7-8.4c-1.6-9.8-6.2-19.2-13.8-26.7c-4.1-4.1-8.8-7.4-13.8-9.7l0.2-0.5h0l5.2-11.4
				c0.8-1.8,0-4-1.8-4.8c-1.8-0.8-4,0-4.8,1.8l-5.7,12.3c-9.4-2.9-19.6-2.9-29.1,0l-5.7-12.3c-0.8-1.8-3-2.6-4.8-1.8
				c-1.8,0.8-2.6,3-1.8,4.8l5.1,11l0.4,0.9c-5,2.4-9.7,5.6-13.8,9.8c-9.9,9.9-14.7,23-14.5,36.1c0.1,7.1,1.7,14.1,4.8,20.6
				c-17.6-7.9-115.6-48.5-135.3-20.8c-17.9,25.2,37,69.2,51.7,81.8l0.9-1.1c2.6-2.8,2.4-7.2-0.3-9.8c-7.2-6.8-18.5-18-26.4-28.9
				c-10.4-14.3-10.6-22.8-5.6-27.5c15.6-14.6,73.5,4.7,91.4,11.6c17.2,6.6,35.8,15,55,25.1c-91.7,53.2-154,116.7-139.3,142.2
				c9.2,16,47.6,13.9,96.9-3.5l-1.8-2.9c-1.7-2.8-4.9-4-8-3.1c-34.2,10.4-55.5,15.3-62.8,4.3c-10.3-17.8,41.9-79.1,122.9-125.9
				l6.1-3.5c2,1.1,4.1,2.3,6.1,3.5c81,46.8,133.2,108.1,122.9,125.9c-7.4,11-28.7,6.1-62.8-4.3c-3.1-0.9-6.3,0.3-8,3.1l-1.8,2.9
				c49.3,17.4,87.7,19.5,96.9,3.5c14.7-25.5-47.6-89-139.3-142.2c64.6-34,122.7-49.2,144.1-38.3
				C577.2,197.4,543.6,231.3,528.4,245.7z M358.1,180.5c-3-18.4,6.8-36.9,23.8-44.7C384.8,154.2,375,172.6,358.1,180.5z
				 M440.6,180.5c-17-7.9-26.7-26.3-23.8-44.7C433.8,143.6,443.6,162.1,440.6,180.5z"/>
			<path class="st6" d="M440.6,180.5c-17-7.9-26.7-26.3-23.8-44.7C433.8,143.6,443.6,162.1,440.6,180.5z"/>
		</g>
		<g>
			<g>
				<g>
					<path d="M397.9,623.2c-42.2,0-84.1-7-113.6-14.2l0,0c-52.3-12.8-82.6-41.4-83.1-71.8c0-28,21.3-42.3,60.6-45.8
						c6.7-23.3,35.4-45.6,69.1-46.1c12.3-0.2,23.7,5.6,29.6,9.4c22.3-18.3,47.8-34.5,80.7-34.5c55.6,0,104,30.4,114.6,71.3
						c30,10.4,47.1,25.7,47.1,48.9c0,15.8-9.9,34.5-28.5,47.1c-14.4,9.6-43.6,20.1-62.7,24.2C480.8,618.2,444.2,623.2,397.9,623.2z"
						/>
				</g>
			</g>
			<g>
				<g>
					<path class="st11" d="M391.7,607.9c-46.8,0-90.1-9-106.5-12.9c-43.6-10.3-72-33.1-72.5-58.1c0-7.9,0-29.1,49.6-33.5l6.2-0.5
						l1.7-5.8c5.1-17.1,28.5-35.9,57.4-36.3l0.4,0c8.4,0,17.3,3.8,22.8,7.3l5.6,3.6l5.2-4.2c18.6-14.8,41.7-30,71.4-30
						c48.4,0,91.7,25.5,100.7,59.4l1.2,4.6l4.6,1.6c34.9,11.8,38.9,26.7,38.9,37c0,12.9-9.1,27.1-23.2,36.3
						c-12.8,8.3-39.7,17.6-56.8,21.1C463.6,604.5,429.7,607.9,391.7,607.9z"/>
				</g>
			</g>
		</g>
	</g>
</g>
</svg>
