<svg width="103" height="20" viewBox="0 0 103 20" fill="none" xmlns="http://www.w3.org/2000/svg">
<g clip-path="url(#clip0_3389_2299)">
<path d="M101.653 14.4025L102.829 15.59L101.273 16.9075C101.172 16.9928 101.039 17.0373 100.903 17.0317C100.768 17.0261 100.64 16.9708 100.547 16.8775L99.6349 15.9575C98.7771 16.3593 97.8328 16.5681 96.8757 16.5675C95.4948 16.5595 94.1581 16.1053 93.0872 15.28C92.0116 14.4508 91.264 13.3017 90.9658 12.0194C90.6666 10.735 90.8329 9.39274 91.4378 8.20875C92.0406 7.02839 93.0488 6.07668 94.2974 5.50937C95.5421 4.94489 96.9532 4.80043 98.2966 5.1C99.6423 5.40121 100.84 6.12734 101.691 7.15875C102.546 8.19417 103.008 9.47245 103.001 10.7869C102.994 12.1014 102.519 13.3752 101.653 14.4025ZM97.6984 13.985L96.0009 12.2675L97.5597 10.9475C97.6611 10.8641 97.7926 10.8209 97.9268 10.8269C98.061 10.833 98.1875 10.8878 98.2801 10.98L99.8185 12.54C100.143 11.9848 100.311 11.3596 100.306 10.725C100.306 8.725 98.7938 7.3875 96.8757 7.3875C94.9577 7.3875 93.443 8.72 93.443 10.725C93.443 12.73 94.9577 14.065 96.8757 14.065C97.152 14.0628 97.4274 14.036 97.6984 13.985ZM89.2372 16.345H86.546V9.81L83.5907 14.455C83.5672 14.493 83.5334 14.5245 83.4927 14.546C83.4521 14.5675 83.4062 14.5784 83.3596 14.5775C83.3132 14.5783 83.2673 14.5674 83.2268 14.5458C83.1863 14.5243 83.1526 14.493 83.1292 14.455L80.1527 9.81V15.85C80.1522 15.9818 80.097 16.1081 79.9989 16.2017C79.9008 16.2952 79.7677 16.3485 79.6285 16.35H77.4536V5.1075H80.1448L83.3418 10.1075L86.5387 5.1075H89.2293L89.2372 16.345Z" fill="#141414"/>
<path d="M74.9432 5.10749V16.345H72.9228L68.3922 10.25V15.8425C68.3922 15.9412 68.3616 16.0376 68.304 16.1199C68.2465 16.2022 68.1646 16.2665 68.0686 16.305C68.005 16.33 67.9368 16.3427 67.8679 16.3425H65.7009V5.10749H67.7187L72.0242 10.8875C72.0402 10.9094 72.0631 10.9258 72.0897 10.9344C72.1163 10.943 72.1451 10.9432 72.1719 10.9351C72.1986 10.927 72.2219 10.9109 72.2382 10.8892C72.2545 10.8676 72.2631 10.8416 72.2626 10.815V5.10749H74.9432ZM63.3267 16.345V5.10749H60.6328V16.345H63.3267ZM47.977 5.10749H50.9198L53.5265 13.375L56.1477 5.10749H59.0792L55.3607 16C55.3264 16.0996 55.2598 16.1865 55.1705 16.2485C55.0812 16.3104 54.9735 16.3441 54.8628 16.345H51.8125L47.977 5.10749ZM45.3796 14.5775H40.9988L40.532 16C40.4984 16.101 40.4319 16.1893 40.342 16.2522C40.252 16.3151 40.1433 16.3493 40.0315 16.35H37.4717L41.4755 5.11249H44.9088L48.9119 16.345H45.9771L45.3796 14.5775ZM44.5701 12.17L43.1921 8.04499L41.8657 12C41.8595 12.0187 41.858 12.0386 41.8614 12.058C41.8648 12.0773 41.873 12.0957 41.8852 12.1115C41.8975 12.1273 41.9136 12.1402 41.9321 12.149C41.9506 12.1579 41.9711 12.1625 41.9918 12.1625L44.5701 12.17ZM35.9835 13.8725V16.345H29.0864V5.10749H31.7776V13.8725H35.9835Z" fill="#141414"/>
<mask id="mask0_3389_2299" style="mask-type:luminance" maskUnits="userSpaceOnUse" x="0" y="0" width="21" height="20">
<path d="M0 0H20.9631V20H0V0Z" fill="white"/>
</mask>
<g mask="url(#mask0_3389_2299)">
<path fill-rule="evenodd" clip-rule="evenodd" d="M18.8648 10.2901L18.0368 9.46827L13.4032 5.08764C13.3786 5.06459 13.3453 5.05166 13.3107 5.05166C13.2761 5.05166 13.2429 5.06459 13.2183 5.08764L8.61828 9.43577C8.60052 9.45262 8.58813 9.47387 8.58252 9.49708C8.57692 9.52029 8.57833 9.54453 8.58659 9.56702L8.74505 9.99827L8.22014 9.47889L6.37209 7.73202C6.35999 7.72045 6.34559 7.71127 6.32973 7.70501C6.31386 7.69874 6.29684 7.69551 6.27965 7.69551C6.26246 7.69551 6.24544 7.69874 6.22957 7.70501C6.2137 7.71127 6.19931 7.72045 6.18721 7.73202L2.53864 11.182C2.53169 11.1884 2.52302 11.1929 2.51355 11.195C2.50409 11.1971 2.49421 11.1966 2.485 11.1937C2.47579 11.1908 2.4676 11.1855 2.46134 11.1785C2.45508 11.1715 2.45098 11.163 2.4495 11.1539C2.389 10.772 2.35854 10.3863 2.35839 10.0001C2.35839 5.72702 6.00234 2.25014 10.4815 2.25014C14.729 2.25014 18.2243 5.37702 18.5743 9.34452C18.5855 9.47202 18.6139 9.70764 18.6581 9.82827C18.7407 10.052 18.8681 10.2933 18.8648 10.2901ZM10.8929 18.0958L10.1857 17.7808C10.0418 17.7345 9.63111 17.7051 9.48057 17.687C6.82766 17.3745 4.5676 15.8401 3.34151 13.6908C3.33079 13.6717 3.32686 13.6498 3.33031 13.6284C3.33376 13.607 3.3444 13.5872 3.36066 13.572L6.19316 10.8945C6.20031 10.8876 6.20949 10.8829 6.21952 10.881C6.22954 10.8791 6.23993 10.8801 6.24934 10.8839C6.25876 10.8877 6.26674 10.894 6.27227 10.9022C6.27779 10.9103 6.28059 10.9198 6.28031 10.9295V13.7151C6.28028 13.7482 6.29405 13.7798 6.3186 13.8033L10.1567 17.432L10.8929 18.0958ZM20.9631 10.0001C20.9631 4.24264 15.8633 -0.37861 9.73807 0.0245153C4.56892 0.364515 0.382238 4.35952 0.0256996 9.29077C-0.396865 15.1345 4.44678 20.0001 10.4815 20.0001H19.0312C19.0574 20 19.083 19.9925 19.1048 19.9785C19.1265 19.9646 19.1434 19.9449 19.1533 19.9219C19.1632 19.8989 19.1656 19.8736 19.1604 19.8492C19.1551 19.8249 19.1423 19.8026 19.1236 19.7851L11.5769 12.6501H11.5756L10.1461 11.3001C10.1266 11.2814 10.1156 11.2562 10.1156 11.2298C10.1156 11.2035 10.1266 11.1782 10.1461 11.1595L13.2229 8.25077C13.2301 8.24399 13.2393 8.23937 13.2492 8.23751C13.2592 8.23564 13.2695 8.23661 13.2789 8.24028C13.2883 8.24396 13.2963 8.25018 13.302 8.25816C13.3076 8.26614 13.3107 8.27553 13.3107 8.28514V11.0914C13.3107 11.1114 13.3186 11.1301 13.3338 11.1445L20.7386 18.1445C20.7571 18.1617 20.7806 18.1734 20.8061 18.178C20.8316 18.1826 20.858 18.1801 20.8819 18.1706C20.9059 18.1611 20.9264 18.1452 20.9408 18.1248C20.9552 18.1043 20.963 18.0803 20.9631 18.0558V10.2083L20.9572 10.2133C20.9591 10.142 20.9631 10.0714 20.9631 10.0001Z" fill="#141414"/>
</g>
</g>
<defs>
<clipPath id="clip0_3389_2299">
<rect width="103" height="20" fill="white"/>
</clipPath>
</defs>
</svg>
