<svg width="520" height="100" viewBox="0 0 520 100" fill="none" xmlns="http://www.w3.org/2000/svg">
<rect width="520" height="100" fill="white"/>
<path fill-rule="evenodd" clip-rule="evenodd" d="M116.796 50.1682C116.796 35.2342 127.888 23.7802 143.184 23.7802C152.391 23.7802 160.51 28.3472 164.932 35.5242L154.928 41.3242C152.681 37.4092 148.331 35.0892 143.184 35.0892C134.195 35.0892 128.395 41.1062 128.395 50.1682C128.395 59.2302 134.195 65.2472 143.184 65.2472C148.331 65.2472 152.754 62.9262 154.928 59.0112L164.932 64.8112C160.583 71.9892 152.463 76.5552 143.184 76.5552C127.888 76.5552 116.796 65.1012 116.796 50.1682Z" fill="#64656E"/>
<path fill-rule="evenodd" clip-rule="evenodd" d="M170.009 75.5401H180.883V22.6201H170.009V75.5401Z" fill="#64656E"/>
<path fill-rule="evenodd" clip-rule="evenodd" d="M213.869 57.4177C213.869 52.2707 210.244 48.8637 205.532 48.8637C200.82 48.8637 197.195 52.2707 197.195 57.4177C197.195 62.5637 200.82 65.9717 205.532 65.9717C210.244 65.9717 213.869 62.5637 213.869 57.4177ZM186.321 57.4177C186.321 46.6157 194.875 38.2787 205.532 38.2787C216.189 38.2787 224.743 46.6157 224.743 57.4177C224.743 68.2187 216.189 76.5557 205.532 76.5557C194.875 76.5557 186.321 68.2187 186.321 57.4177Z" fill="#64656E"/>
<path fill-rule="evenodd" clip-rule="evenodd" d="M264.472 39.2942V75.5412H253.598V72.1332C251.641 74.8162 248.016 76.5552 243.231 76.5552C235.91 76.5552 229.675 71.3362 229.675 61.5492V39.2942H240.549V59.9552C240.549 64.4492 243.376 66.5512 246.856 66.5512C250.843 66.5512 253.598 64.2312 253.598 59.0852V39.2942H264.472Z" fill="#64656E"/>
<path fill-rule="evenodd" clip-rule="evenodd" d="M298.04 57.4177C298.04 51.9807 294.415 48.5737 289.413 48.5737C284.411 48.5737 280.786 51.9807 280.786 57.4177C280.786 62.8547 284.411 66.2617 289.413 66.2617C294.415 66.2617 298.04 62.8547 298.04 57.4177ZM308.914 24.7947V75.5407H298.04V72.1337C295.647 74.8887 292.096 76.5557 287.238 76.5557C277.741 76.5557 269.912 68.2187 269.912 57.4177C269.912 46.6157 277.741 38.2787 287.238 38.2787C292.096 38.2787 295.647 39.9467 298.04 42.7017V24.7947H308.914Z" fill="#64656E"/>
<path fill-rule="evenodd" clip-rule="evenodd" d="M342.77 56.6921L336.826 38.0621L330.88 56.6921H342.77ZM346.249 67.5661H327.401L324.864 75.5411H312.177L329.431 24.7951H344.22L361.473 75.5411H348.787L346.249 67.5661Z" fill="#64656E"/>
<path fill-rule="evenodd" clip-rule="evenodd" d="M415.847 75.5407H404.248V46.0357L391.126 67.5657H389.822L376.701 46.0357V75.5407H365.101V24.7947H376.701L390.474 47.3407L404.248 24.7947H415.847V75.5407Z" fill="#64656E"/>
<path fill-rule="evenodd" clip-rule="evenodd" d="M451.591 64.8845L444.268 57.1265L452.605 49.7325L460.724 58.3595C462.029 56.0395 462.827 53.2845 462.827 50.1685C462.827 41.1065 456.303 35.0895 448.038 35.0895C439.775 35.0895 433.25 41.1065 433.25 50.1685C433.25 59.2305 439.775 65.2465 448.038 65.2465C449.271 65.2465 450.431 65.1015 451.591 64.8845ZM468.626 66.7695L473.701 72.1335L465.363 79.5285L459.927 73.8005C456.374 75.5405 452.316 76.5555 448.038 76.5555C433.467 76.5555 421.651 65.1015 421.651 50.1685C421.651 35.2345 433.467 23.7805 448.038 23.7805C462.61 23.7805 474.427 35.2345 474.427 50.1685C474.427 56.5465 472.251 62.2745 468.626 66.7695Z" fill="#64656E"/>
<path fill-rule="evenodd" clip-rule="evenodd" d="M505.965 42.1936C505.965 38.4966 503.355 35.6696 499.802 35.6696H492.191V48.7186H499.802C503.355 48.7186 505.965 45.8906 505.965 42.1936ZM517.565 42.1936C517.565 51.8356 509.807 59.5916 499.802 59.5916H492.191V75.5406H480.591V24.7956H499.802C509.807 24.7956 517.565 32.5516 517.565 42.1936Z" fill="#64656E"/>
<path fill-rule="evenodd" clip-rule="evenodd" d="M3.3429 7.593C3.3429 7.593 6.3779 5.529 8.5449 5.863C10.7119 6.196 13.3779 7.363 18.7119 12.029C24.0449 16.696 27.7529 32.328 27.7529 32.328H30.6269L38.9659 29.29C38.5909 31.339 39.5819 14.98 56.7119 10.363C56.7119 10.363 64.5169 8.45 64.7809 23.156C64.7809 23.156 86.0449 20.529 96.6279 37.209C102.712 46.647 101.858 52.623 98.2119 67.362L95.8779 72.529L97.2329 75.541C97.2329 75.541 91.8409 82.335 83.5259 82.765C83.5259 82.765 80.0769 83.093 77.9779 79.144C77.9779 79.144 78.6899 81.848 64.2839 82.772C64.2839 82.772 65.8929 90.893 49.8019 90.712C49.8019 90.712 47.3019 99.273 32.1739 92.318C32.1739 92.318 29.8119 89.266 30.4279 87.231C30.4279 87.231 25.0569 92.766 14.8839 87.231C14.8839 87.231 8.5449 78.607 21.5449 76.555L19.7519 73.055C19.7519 73.055 10.5109 70.814 12.2779 53.339C12.2779 53.339 13.5099 45.428 16.6109 40.979L11.9759 16.363L3.3429 7.593Z" fill="#FEFEFE"/>
<path fill-rule="evenodd" clip-rule="evenodd" d="M16.6037 40.9787L16.4767 40.9997C16.4767 40.9997 11.7487 32.6597 11.6177 30.3607C11.4857 28.0627 12.6027 23.2687 11.6177 21.4297C10.6327 19.5917 3.8747 12.8937 3.3427 12.2367C2.8107 11.5797 2.4237 9.7407 3.3427 8.5587C4.2627 7.3767 5.7727 7.5077 6.7577 7.7707C7.7427 8.0337 14.5067 15.4867 15.0317 17.8837C15.5577 20.2807 15.7547 26.6177 15.9517 29.0477C16.1487 31.4777 19.2347 37.5847 19.2347 37.5847" fill="#F7A593"/>
<path fill-rule="evenodd" clip-rule="evenodd" d="M16.0626 41.8669L15.7916 41.3879C15.2976 40.5179 10.9686 32.8189 10.8306 30.4059C10.7806 29.5259 10.8956 28.3589 11.0166 27.1229C11.2066 25.1859 11.4436 22.7749 10.9226 21.8019C10.2506 20.5469 6.2196 16.3759 4.2836 14.3719C3.3446 13.3999 2.8866 12.9249 2.7306 12.7329C1.9566 11.7779 1.5786 9.5439 2.7206 8.0749C3.6336 6.9019 5.1396 6.5249 6.9606 7.0099C8.9706 7.5449 15.4336 16.0349 15.8016 17.7159C16.1916 19.4939 16.3976 23.1959 16.5626 26.1699C16.6256 27.3019 16.6816 28.2989 16.7366 28.9839C16.8886 30.8509 19.0996 35.5689 19.9376 37.2289L18.5316 37.9399C18.4026 37.6849 15.3736 31.6659 15.1656 29.1119C15.1096 28.4169 15.0536 27.4059 14.9896 26.2579C14.8356 23.4929 14.6246 19.7079 14.2626 18.0529C13.8006 15.9459 7.5486 9.0239 6.4986 8.5129C5.7276 8.3119 4.6056 8.2209 3.9646 9.0429C3.2956 9.9029 3.6296 11.3389 3.9556 11.7409C4.0746 11.8879 4.7266 12.5619 5.4166 13.2769C8.5126 16.4809 11.5956 19.7209 12.3126 21.0579C13.0586 22.4519 12.8176 24.9059 12.5846 27.2769C12.4696 28.4499 12.3606 29.5579 12.4036 30.3159C12.4916 31.8559 15.3696 37.4479 17.1626 40.6109L16.5956 40.9319L16.7316 41.7559L16.0626 41.8669Z" fill="#020303"/>
<path fill-rule="evenodd" clip-rule="evenodd" d="M40.3805 43.6262C40.3805 43.6262 39.9735 31.5642 44.5685 23.9962C47.3895 19.3492 52.9285 15.7562 58.3735 18.8032C63.9035 22.9782 62.1295 31.0202 57.6765 35.3242C51.3415 41.4472 40.3805 43.6262 40.3805 43.6262Z" fill="#F7A593"/>
<path fill-rule="evenodd" clip-rule="evenodd" d="M54.1998 18.4675C50.5478 18.4675 47.2038 21.1725 45.2418 24.4045C41.5628 30.4655 41.1838 39.6655 41.1618 42.6375C43.9128 41.9605 52.0958 39.6215 57.1288 34.7575C59.6908 32.2805 61.2178 28.5785 61.0188 25.3255C60.8728 22.9185 59.8088 20.8925 57.9418 19.4655C56.6868 18.7725 55.4258 18.4675 54.1998 18.4675ZM39.6238 44.5795L39.5928 43.6525C39.5758 43.1505 39.2318 31.2685 43.8948 23.5875C46.9048 18.6295 52.8388 14.8035 58.7588 18.1155L58.8478 18.1745C61.1208 19.8895 62.4158 22.3295 62.5928 25.2295C62.8218 28.9805 61.1478 33.0655 58.2248 35.8905C51.7968 42.1035 40.9908 44.3085 40.5338 44.3995L39.6238 44.5795Z" fill="#020303"/>
<path fill-rule="evenodd" clip-rule="evenodd" d="M28.8649 75.239C25.1819 75.239 21.5589 74.76 18.7789 73.502C11.4449 70.18 11.2289 59.332 11.2229 58.872C11.2039 58.642 10.7199 51.95 13.7819 44.762C17.6529 35.673 23.7259 31.439 32.8939 31.439C34.6749 31.439 36.5229 31.657 38.3869 32.089L38.0319 33.624C36.2839 33.22 34.5559 33.015 32.8939 33.015C24.4369 33.015 18.8249 36.944 15.2319 45.38C12.3279 52.198 12.7919 58.736 12.7969 58.801C12.8009 58.955 13.0119 69.16 19.4289 72.066C26.0539 75.065 38.6849 73.256 43.3559 71.27C47.7559 69.399 55.6159 61.73 55.6159 53.11C55.6159 49.489 54.5789 46.125 52.5349 43.113L53.8389 42.228C56.0639 45.506 57.1919 49.167 57.1919 53.11C57.1919 62.118 49.3749 70.424 43.9719 72.721C41.0499 73.963 34.8779 75.239 28.8649 75.239Z" fill="#020303"/>
<path fill-rule="evenodd" clip-rule="evenodd" d="M45.7306 47.4016L45.2746 45.8926C50.7266 44.2446 59.0986 38.0616 62.1416 32.2556C65.2346 26.3516 64.4636 14.3876 59.6706 11.4646C58.4856 10.7416 56.9316 10.6586 55.0486 11.2136C49.8766 12.7416 43.9516 18.6276 41.8696 22.9536C38.8066 29.3176 37.6306 42.6406 37.6196 42.7746L36.0486 42.6396C36.0966 42.0806 37.2616 28.8916 40.4496 22.2706C42.7226 17.5486 48.9516 11.3726 54.6026 9.7026C56.9296 9.0146 58.9116 9.1546 60.4916 10.1186C66.5576 13.8186 66.6806 26.9876 63.5376 32.9866C60.2226 39.3106 51.4926 45.6596 45.7306 47.4016Z" fill="#020303"/>
<path fill-rule="evenodd" clip-rule="evenodd" d="M41.382 56.2351C41.382 56.2351 40.84 55.6031 39.896 55.6851L39.855 55.3481C39.855 55.3481 41.333 54.9051 41.875 55.6441L41.382 56.2351ZM40.643 54.2651C39.297 54.2651 37.466 55.5741 37.466 57.0971C37.466 58.6201 38.73 59.3061 40.077 59.3061C41.423 59.3061 42.736 58.3001 42.736 56.7771C42.736 55.2541 41.989 54.2651 40.643 54.2651Z" fill="#020303"/>
<path fill-rule="evenodd" clip-rule="evenodd" d="M15.0978 65.363C15.5248 65.125 16.2018 66.348 17.2908 66.742C18.3818 67.136 20.5488 66.545 20.9428 67.005C21.3368 67.465 20.6718 71.498 18.1838 70.813C15.6968 70.129 15.0148 67.333 15.0148 67.333C15.0148 67.333 14.6708 65.601 15.0978 65.363Z" fill="#020303"/>
<path fill-rule="evenodd" clip-rule="evenodd" d="M28.5602 32.529H26.9842C26.9842 26.529 19.6732 14.223 17.8442 12.055C16.1572 10.055 10.9472 6.393 7.83921 6.507C5.00721 6.615 4.10921 8.728 4.07221 8.816L2.61121 8.246C2.66221 8.119 3.89621 5.153 7.77821 5.003C11.5912 4.871 17.2122 8.857 19.0492 11.034C21.0182 13.368 28.5602 26.529 28.5602 32.529Z" fill="#020303"/>
<path fill-rule="evenodd" clip-rule="evenodd" d="M41.6676 95.7761C39.7006 95.7761 37.7386 95.4791 36.7916 94.8471C36.4886 94.6461 36.1066 94.2411 36.0026 93.4531C35.7926 91.8551 36.8566 89.2691 37.9496 88.0251L39.1336 89.0641C38.3216 89.9901 37.4196 92.1441 37.5656 93.2471C37.5916 93.4481 37.6466 93.5241 37.6656 93.5371C38.5746 94.1421 42.0026 94.4561 44.5596 93.9451C46.5796 93.5411 48.8216 92.4031 49.0546 90.4221L49.1316 89.7661L49.7906 89.7271C50.2006 89.7041 50.6506 89.6851 51.1326 89.6651C57.1716 89.4161 63.1006 88.4491 63.4986 82.4881L63.5466 81.5291H64.2846C68.5316 81.5291 73.1056 81.5071 78.2076 78.5741L78.9806 78.2421L79.3266 79.1211C80.3526 81.5571 83.3436 81.9491 85.0356 81.9491C87.3646 81.9491 95.5316 77.1741 96.3166 75.9021C96.8186 75.0891 95.8446 73.6081 95.4636 73.1511L95.1366 72.7611L95.3606 72.3021C95.4176 72.1851 101.096 60.4881 100.143 50.2651C99.2016 40.1661 93.0856 31.3541 84.1816 27.2681C79.0636 24.6801 72.2656 23.5491 65.0166 24.0651L64.9046 22.4921C72.4326 21.9571 79.5226 23.1481 84.8656 25.8491C94.2536 30.1561 100.72 39.4621 101.712 50.1201C102.611 59.7661 98.0496 70.2651 96.9846 72.5571C97.5636 73.3811 98.5996 75.2171 97.6576 76.7441C96.6386 78.3961 87.9876 83.5531 85.0356 83.5531C81.8426 83.5531 79.4806 82.5001 78.2746 80.5641C73.4146 83.1621 69.0566 83.5191 64.9956 83.5501C63.9946 90.7121 55.7136 91.0531 51.1976 91.2401C50.9536 91.2501 50.7166 91.2591 50.4906 91.2701C49.9206 93.3361 47.8746 94.8891 44.8696 95.4901C43.9276 95.6781 42.7956 95.7761 41.6676 95.7761Z" fill="#020303"/>
<path fill-rule="evenodd" clip-rule="evenodd" d="M30.9279 33.0554L30.3229 31.6004C30.3559 31.5864 33.7009 30.2004 38.7169 28.5284L39.2149 30.0234C34.2579 31.6754 30.9609 33.0414 30.9279 33.0554Z" fill="#020303"/>
<path fill-rule="evenodd" clip-rule="evenodd" d="M37.1774 94.9782C36.1164 94.9102 32.5924 94.5632 31.7954 92.9682C30.9034 91.1832 31.4854 88.8442 33.3524 86.7112L34.5374 87.7502C33.1074 89.3842 32.6094 91.0722 33.2054 92.2632C33.4644 92.7822 35.5704 93.2932 37.2794 93.4062L37.1774 94.9782Z" fill="#020303"/>
<path fill-rule="evenodd" clip-rule="evenodd" d="M32.0119 93.2341C31.8789 93.1301 28.7729 90.6271 29.8709 87.0031C30.9949 83.2961 34.1189 82.1091 35.8819 81.7321C36.8289 81.5291 38.1149 81.6761 39.4749 81.8311C40.9809 82.0041 42.6879 82.1961 43.8469 81.8751C45.7539 81.3441 46.0389 80.6941 46.1599 78.3901L47.7349 78.4721C47.5909 81.1941 47.0359 82.6251 44.2689 83.3931C42.8119 83.7961 40.9449 83.5841 39.2959 83.3961C38.0679 83.2571 36.9059 83.1241 36.2119 83.2731C34.7879 83.5781 32.2679 84.5271 31.3789 87.4601C30.5889 90.0671 32.9639 91.9781 32.9889 91.9981L32.0119 93.2341Z" fill="#020303"/>
<path fill-rule="evenodd" clip-rule="evenodd" d="M63.4962 82.529C63.4962 82.529 63.4782 77.167 62.1462 74.707L63.5322 73.898C65.0552 76.709 65.0722 82.529 65.0722 82.529H63.4962Z" fill="#020303"/>
<path fill-rule="evenodd" clip-rule="evenodd" d="M79.9821 78.9284C77.4091 78.9294 75.0801 78.1654 73.7251 75.9524C69.5481 69.1304 74.5141 62.6434 74.5651 62.5784L75.8071 63.5484C75.6281 63.7794 71.4711 69.2524 75.0691 75.1304C78.5761 80.8544 91.7521 73.8284 91.8851 73.7564L92.6341 75.1434C92.2271 75.3634 85.5401 78.9284 79.9821 78.9284Z" fill="#020303"/>
<path fill-rule="evenodd" clip-rule="evenodd" d="M82.7882 82.949C82.7552 82.86 81.9772 80.742 82.7792 78.356L84.2732 78.858C83.6562 80.696 84.2582 82.381 84.2652 82.397L82.7882 82.949Z" fill="#020303"/>
<path fill-rule="evenodd" clip-rule="evenodd" d="M79.2672 80.9685L78.1822 79.9005C78.0612 79.7795 77.0132 78.6895 77.4942 77.6975L78.3502 78.1135C78.4252 77.9575 78.5152 77.7915 78.6242 77.6165L79.6262 78.2435C79.1712 78.9715 79.1892 79.4305 79.1892 79.4345L79.2672 80.9685Z" fill="#020303"/>
<path fill-rule="evenodd" clip-rule="evenodd" d="M23.8742 90.4558C22.5572 90.4558 21.1922 90.2148 19.8562 89.6678L19.5822 89.5558L19.4502 89.2908C18.5882 87.5678 18.1202 85.5288 20.5052 82.2978L21.7732 83.2328C20.0862 85.5188 20.0772 86.8698 20.7312 88.3178C24.6682 89.7808 28.4482 88.1228 30.0082 86.3928C29.7412 84.7748 28.8642 83.1618 28.8542 83.1448L30.2352 82.3858C30.2822 82.4718 31.3942 84.5078 31.6202 86.5438L31.6552 86.8608L31.4592 87.1138C29.9622 89.0408 27.0612 90.4558 23.8742 90.4558Z" fill="#020303"/>
<path fill-rule="evenodd" clip-rule="evenodd" d="M20.1041 89.7243C19.9311 89.7133 15.8491 89.4293 14.2211 87.1843C12.4731 84.7723 15.2201 80.2583 16.2121 79.4593L17.2011 80.6863C16.5131 81.2423 14.4621 84.8313 15.4981 86.2583C16.4861 87.6223 19.2311 88.0873 20.2051 88.1523L20.1041 89.7243Z" fill="#020303"/>
<path fill-rule="evenodd" clip-rule="evenodd" d="M14.2946 87.2712C12.2126 85.1292 11.8716 82.6322 13.3336 80.2392C14.7986 77.8402 17.9576 76.0022 20.5416 75.8062C19.9476 74.7242 19.4596 73.5832 19.4296 73.5132L20.8796 72.8962C21.1596 73.5542 22.0286 75.4362 22.6706 76.2262L24.3016 78.2352L21.8276 77.4772C19.9876 76.9052 16.2506 78.4872 14.6786 81.0612C13.5966 82.8312 13.8476 84.5502 15.4246 86.1712L14.2946 87.2712Z" fill="#020303"/>
</svg>
