<?xml version="1.0" encoding="UTF-8"?>
<svg width="512px" height="512px" viewBox="0 0 512 512" version="1.1" xmlns="http://www.w3.org/2000/svg" xmlns:xlink="http://www.w3.org/1999/xlink">
    <title>画板</title>
    <defs>
        <polygon id="path-1" points="63.3666878 82.3153895 49.8239392 82.3153895 13.8771374 23.8530716 13.5427486 23.9645345 13.5427486 82.3153895 0 82.3153895 0 1.17036099 13.5427486 1.17036099 49.4895503 59.6326789 49.8239392 59.521216 49.8239392 1.17036099 63.3666878 1.17036099"></polygon>
        <path d="M115.364155,82.3153895 C114.881148,80.7920625 114.481739,79.3058898 114.165928,77.8568714 C113.850116,76.4078531 113.636479,74.9588347 113.525016,73.5098163 C111.704454,76.3335444 109.270847,78.7021322 106.224193,80.6155795 C103.177539,82.5290268 99.7779185,83.4857505 96.0253325,83.4857505 C89.7462529,83.4857505 84.9254803,81.8695377 81.5630146,78.6371121 C78.2005489,75.4046865 76.519316,70.9647456 76.519316,65.3172894 C76.519316,59.4840616 78.8228837,54.9419464 83.430019,51.6909436 C88.0371543,48.4399409 94.5205826,46.8144395 102.880304,46.8144395 L113.413553,46.8144395 L113.413553,41.5199493 C113.413553,38.3618324 112.493984,35.8910703 110.654845,34.1076631 C108.815706,32.3242559 106.149884,31.4325522 102.657378,31.4325522 C99.5735698,31.4325522 97.1213848,32.16635 95.3008233,33.6339455 C93.4802618,35.1015411 92.569981,37.0056998 92.569981,39.3464218 L79.5288157,39.4021533 L79.4730842,39.0677644 C79.213004,34.3120118 81.3400887,30.0949968 85.8543382,26.4167194 C90.3685877,22.7384421 96.2482584,20.8993034 103.49335,20.8993034 C110.515516,20.8993034 116.18155,22.6827106 120.49145,26.249525 C124.801351,29.8163395 126.956301,34.9436352 126.956301,41.6314123 L126.956301,68.4382521 C126.956301,70.9275913 127.123496,73.3147562 127.457885,75.5997467 C127.792274,77.8847372 128.331011,80.1232848 129.074098,82.3153895 L115.364155,82.3153895 Z M98.8119063,72.6181127 C102.192949,72.6181127 105.248892,71.7635634 107.979734,70.0544649 C110.710576,68.3453663 112.521849,66.3947646 113.413553,64.2026599 L113.413553,55.2856238 L102.657378,55.2856238 C98.7190205,55.2856238 95.6352122,56.2609246 93.4059531,58.2115263 C91.1766941,60.1621279 90.0620646,62.456407 90.0620646,65.0943635 C90.0620646,67.3979312 90.8144395,69.2277813 92.3191894,70.5839139 C93.8239392,71.9400464 95.9881782,72.6181127 98.8119063,72.6181127 Z" id="path-2"></path>
        <path d="M153.373021,22.0139329 L154.153262,30.7080431 C156.12244,27.6242347 158.602491,25.2184927 161.593414,23.490817 C164.584336,21.7631412 167.95609,20.8993034 171.708676,20.8993034 C177.987756,20.8993034 182.882837,22.8313278 186.39392,26.6953768 C189.905003,30.5594258 191.660545,36.5970023 191.660545,44.8081064 L191.660545,82.3153895 L178.117796,82.3153895 L178.117796,44.9195693 C178.117796,40.2381254 177.207515,36.912814 175.386954,34.9436352 C173.566392,32.9744564 170.816973,31.989867 167.138695,31.989867 C164.240659,31.989867 161.732742,32.5378932 159.614946,33.6339455 C157.49715,34.7299979 155.806629,36.2440363 154.543382,38.1760608 L154.543382,82.3153895 L141.000633,82.3153895 L141.000633,22.0139329 L153.373021,22.0139329 Z" id="path-3"></path>
        <path d="M203.252692,51.6073464 C203.252692,42.6160017 205.714165,35.2501583 210.637112,29.5098163 C215.560059,23.7694744 222.294279,20.8993034 230.839772,20.8993034 C239.496728,20.8993034 246.286679,23.7694744 251.209626,29.5098163 C256.132573,35.2501583 258.594047,42.6160017 258.594047,51.6073464 L258.594047,52.7777074 C258.594047,61.8433608 256.132573,69.2277813 251.209626,74.930969 C246.286679,80.6341566 239.533882,83.4857505 230.951235,83.4857505 C222.331433,83.4857505 215.560059,80.6248681 210.637112,74.9031032 C205.714165,69.1813384 203.252692,61.8062065 203.252692,52.7777074 L203.252692,51.6073464 Z M216.79544,52.7777074 C216.79544,58.6852438 217.947224,63.4781507 220.250792,67.1564281 C222.554359,70.8347055 226.121174,72.6738442 230.951235,72.6738442 C235.669833,72.6738442 239.208782,70.8254169 241.568081,67.1285624 C243.92738,63.4317078 245.10703,58.6480895 245.10703,52.7777074 L245.10703,51.6073464 C245.10703,45.8484273 243.92738,41.1019633 241.568081,37.3679544 C239.208782,33.6339455 235.632679,31.7669411 230.839772,31.7669411 C226.121174,31.7669411 222.600802,33.6339455 220.278657,37.3679544 C217.956513,41.1019633 216.79544,45.8484273 216.79544,51.6073464 L216.79544,52.7777074 Z" id="path-4"></path>
        <polygon id="path-5" points="312.876504 63.5896137 313.210893 63.5896137 336.673844 1.17036099 353.950602 1.17036099 353.950602 82.3153895 340.407853 82.3153895 340.407853 24.020266 340.073464 23.9645345 317.725142 82.3153895 308.417986 82.3153895 285.679544 22.849905 285.345155 22.961368 285.345155 82.3153895 271.802407 82.3153895 271.802407 1.17036099 289.580747 1.17036099"></polygon>
        <path d="M434.816973,49.0436985 C434.816973,53.2049821 434.231792,57.1247625 433.061431,60.8030399 C431.89107,64.4813173 430.209837,67.7880515 428.017733,70.7232426 L440,82.6497783 L430.971501,90.7308423 L418.933502,78.860038 C416.369854,80.383365 413.601858,81.5351488 410.629512,82.3153895 C407.657167,83.0956301 404.517627,83.4857505 401.210893,83.4857505 C391.513616,83.4857505 383.618324,80.2254592 377.525016,73.7048765 C371.431708,67.1842939 368.385054,58.9639012 368.385054,49.0436985 L368.385054,34.4420519 C368.385054,24.5590036 371.422419,16.3478995 377.49715,9.80873971 C383.571881,3.2695799 391.476462,0 401.210893,0 C411.131096,0 419.21216,3.2695799 425.454085,9.80873971 C431.69601,16.3478995 434.816973,24.5590036 434.816973,34.4420519 L434.816973,49.0436985 Z M421.274224,34.330589 C421.274224,27.5685033 419.47224,22.0139329 415.868271,17.6668778 C412.264302,13.3198227 407.37851,11.1462951 401.210893,11.1462951 C395.229048,11.1462951 390.519738,13.3198227 387.082964,17.6668778 C383.64619,22.0139329 381.927802,27.5685033 381.927802,34.330589 L381.927802,49.0436985 C381.927802,55.8800929 383.655478,61.4811062 387.11083,65.8467384 C390.566181,70.2123707 395.266202,72.3951868 401.210893,72.3951868 C407.415664,72.3951868 412.310745,70.2216593 415.896137,65.8746042 C419.481528,61.5275491 421.274224,55.9172472 421.274224,49.0436985 L421.274224,34.330589 Z" id="path-6"></path>
        <polygon id="path-7" points="-4.66540943e-15 0 150.284699 0 150.284699 126.44922 -4.66540943e-15 126.44922"></polygon>
        <polygon id="path-9" points="6.22054591e-15 0 156.273966 0 156.273966 133.781056 6.22054591e-15 133.781056"></polygon>
        <polygon id="path-11" points="0 0 42.0096657 0 42.0096657 42.0152686 0 42.0152686"></polygon>
    </defs>
    <g id="画板" stroke="none" stroke-width="1" fill="none" fill-rule="evenodd">
        <g id="编组-45" transform="translate(36.000000, 83.000000)">
            <g id="NanoMQ" transform="translate(0.000000, 254.910703)" fill="#1D1D1D" fill-rule="nonzero">
                <g id="路径">
                    <use xlink:href="#path-1"></use>
                    <use xlink:href="#path-1"></use>
                </g>
                <g id="形状">
                    <use xlink:href="#path-2"></use>
                    <use xlink:href="#path-2"></use>
                </g>
                <g id="路径">
                    <use xlink:href="#path-3"></use>
                    <use xlink:href="#path-3"></use>
                </g>
                <g id="形状">
                    <use xlink:href="#path-4"></use>
                    <use xlink:href="#path-4"></use>
                </g>
                <g id="路径">
                    <use xlink:href="#path-5"></use>
                    <use xlink:href="#path-5"></use>
                </g>
                <g id="形状">
                    <use xlink:href="#path-6"></use>
                    <use xlink:href="#path-6"></use>
                </g>
            </g>
            <g id="编组" transform="translate(126.363521, 0.000000)">
                <g>
                    <mask id="mask-8" fill="white">
                        <use xlink:href="#path-7"></use>
                    </mask>
                    <g id="Clip-2"></g>
                    <path d="M8.19912873,126.44922 C-0.422440816,108.239568 -2.34495978,86.8292206 2.90782427,66.9491839 C8.15010274,47.0726491 20.5641824,29.0100757 37.6322286,16.7991037 C54.7142823,4.55661506 76.3557526,-1.2599678 97.6575428,0.224819157 C108.317193,1.07226832 118.903303,3.74768632 128.754024,8.2090509 C134.763209,10.954506 140.492246,14.3337971 145.829074,18.2838907 C151.200921,22.2619991 151.848765,30.0431232 147.044218,34.693588 C143.062608,38.5526334 136.836308,38.6751983 132.599062,35.0892978 C128.683987,31.776542 124.415225,28.855994 119.866314,26.4046948 C112.403859,22.4230845 104.206014,19.7616739 95.7245183,18.5220169 C78.7230073,16.2633198 60.7689914,19.6986405 45.795055,29.0065739 C30.8736465,38.2969979 19.1459307,52.9837821 13.4309016,70.0553302 C7.71937445,87.1058672 8.05555263,106.432611 14.8666626,123.567192 L8.19912873,126.44922 Z" id="Fill-1" fill="#1EC4CA" mask="url(#mask-8)"></path>
                </g>
                <g transform="translate(24.538419, 47.135332)">
                    <mask id="mask-10" fill="white">
                        <use xlink:href="#path-9"></use>
                    </mask>
                    <g id="Clip-4"></g>
                    <path d="M1.27259403,100.05503 C2.75387913,98.7383326 4.970554,98.8363845 6.39931126,100.209112 C12.5065482,106.067717 19.4927509,110.935297 27.0252433,114.591235 C35.6328054,118.698912 44.9127239,121.227252 54.3082036,122.011668 C73.1376834,123.447429 92.1247468,118.058072 106.808029,106.904661 C114.158425,101.382234 120.479275,94.5571165 125.322342,86.8565351 C130.1479,79.14895 133.513183,70.6184287 135.225591,61.8252682 C135.82791,59.664623 135.904951,57.3989222 136.213114,55.1857491 C136.577307,52.9830817 136.591315,50.738392 136.60182,48.5042078 C136.843448,44.0463451 136.381203,39.5779768 135.687836,35.2111624 C134.231064,26.4705297 131.159936,18.0835845 126.709077,10.5510922 L146.133872,0 C151.327125,10.1868992 154.597858,21.2982884 155.763976,32.5567555 C156.310266,38.1842381 156.509872,43.8397356 155.897047,49.4427053 C155.707947,52.2476919 155.48733,55.0421731 154.892014,57.8016356 C154.352728,60.5575963 154.01655,63.3485756 153.134083,66.0239936 C150.308085,76.8692417 145.472022,87.1296798 139.007595,96.1434573 C132.529162,105.150231 124.411859,112.882329 115.251004,118.923031 C106.090149,124.963732 95.8612272,129.292026 85.2506034,131.634768 C74.6399797,133.931986 63.686174,134.429249 53.0440336,132.912946 C42.4018931,131.361623 32.1099382,127.84576 22.8055068,122.67702 C14.6251711,118.068578 7.23275299,112.18546 0.946921424,105.342833 C-0.446817275,103.819526 -0.271724474,101.427758 1.27259403,100.05503" id="Fill-3" fill="#1EC4CA" mask="url(#mask-10)"></path>
                </g>
                <path d="M24.555948,126.196386 C24.555948,132.688827 19.2926584,137.955618 12.7967155,137.955618 C6.30077257,137.955618 1.03398111,132.688827 1.03398111,126.196386 C1.03398111,119.700443 6.30077257,114.437153 12.7967155,114.437153 C19.2926584,114.437153 24.555948,119.700443 24.555948,126.196386" id="Fill-5" fill="#1EC4CA"></path>
                <path d="M73.6743814,84.799895 C73.6743814,93.1448179 66.9087956,99.9104038 58.5638727,99.9104038 C50.2154479,99.9104038 43.4463602,93.1448179 43.4463602,84.799895 C43.4463602,76.4514703 50.2154479,69.6858844 58.5638727,69.6858844 C66.9087956,69.6858844 73.6743814,76.4514703 73.6743814,84.799895" id="Fill-7" fill="#1EC4CA"></path>
                <path d="M120.983406,113.785808 C120.983406,124.109279 112.61397,132.482217 102.290498,132.482217 C91.9670268,132.482217 83.5975909,124.109279 83.5975909,113.785808 C83.5975909,103.462336 91.9670268,95.0929004 102.290498,95.0929004 C112.61397,95.0929004 120.983406,103.462336 120.983406,113.785808" id="Fill-9" fill="#1EC4CA"></path>
                <g transform="translate(144.761709, 44.398632)">
                    <mask id="mask-12" fill="white">
                        <use xlink:href="#path-11"></use>
                    </mask>
                    <g id="Clip-12"></g>
                    <path d="M42.0117668,21.0076343 C42.0117668,32.6092833 32.6057815,42.0152686 21.0041325,42.0152686 C9.40248344,42.0152686 0,32.6092833 0,21.0076343 C0,9.40598529 9.40248344,0 21.0041325,0 C32.6057815,0 42.0117668,9.40598529 42.0117668,21.0076343" id="Fill-11" fill="#1EC4CA" mask="url(#mask-12)"></path>
                </g>
                <path d="M10.8325245,135.073941 C9.24968553,135.073941 7.66684661,134.471622 6.45870628,133.259979 C4.04592748,130.847201 4.04592748,126.932126 6.45870628,124.515845 L52.4240685,78.5504828 C54.8368473,76.137704 58.7554242,76.137704 61.168203,78.5504828 C63.5844837,80.9702653 63.5844837,84.8818385 61.168203,87.2946173 L15.2028408,133.259979 C13.9947005,134.471622 12.4118615,135.073941 10.8325245,135.073941" id="Fill-13" fill="#1EC4CA"></path>
                <path d="M102.291199,129.745867 C100.750382,129.745867 99.2095654,129.175064 98.0084288,128.026456 L55.6114579,87.3909183 C53.1426494,85.0236636 53.0586048,81.1120904 55.4223576,78.6467838 C57.7931142,76.1744734 61.7046874,76.1044363 64.1664921,78.4576836 L106.570467,119.093221 C109.035773,121.456974 109.116316,125.372049 106.756065,127.837355 C105.540921,129.105027 103.91606,129.745867 102.291199,129.745867" id="Fill-15" fill="#1EC4CA"></path>
                <path d="M100.399846,131.507301 C98.7434684,131.507301 97.097596,130.848952 95.8754483,129.539257 C93.546714,127.045936 93.6832864,123.130861 96.1801098,120.798625 L160.435666,60.8818682 C162.928988,58.5566358 166.840561,58.6897063 169.176299,61.1900315 C171.505033,63.6868548 171.368461,67.598428 168.871637,69.9306641 L104.616081,129.847421 C103.42545,130.961011 101.912648,131.507301 100.399846,131.507301" id="Fill-17" fill="#1EC4CA"></path>
            </g>
        </g>
    </g>
</svg>