<?xml version="1.0" encoding="utf-8"?>
<!-- Generator: Adobe Illustrator 24.2.1, SVG Export Plug-In . SVG Version: 6.00 Build 0)  -->
<svg version="1.2" baseProfile="tiny" id="Ebene_1" xmlns="http://www.w3.org/2000/svg" xmlns:xlink="http://www.w3.org/1999/xlink"
	 x="0px" y="0px" viewBox="0 0 34 26" overflow="visible" xml:space="preserve">
<path fill-rule="evenodd" fill="#FFFFFF" d="M31.9,5.2H2.8c-0.6,0-1.1-0.5-1.1-1.1V2.3c0-0.6,0.5-1.1,1.1-1.1h29.1
	c0.6,0,1.1,0.5,1.1,1.1v1.9C33,4.8,32.5,5.2,31.9,5.2z"/>
<path fill-rule="evenodd" fill="#FFFFFF" d="M31.9,15.2H2.8c-0.6,0-1.1-0.5-1.1-1.1v-1.9c0-0.6,0.5-1.1,1.1-1.1h29.1
	c0.6,0,1.1,0.5,1.1,1.1v1.9C33,14.8,32.5,15.2,31.9,15.2z"/>
<path fill-rule="evenodd" fill="#FFFFFF" d="M31.9,25.2H2.8c-0.6,0-1.1-0.5-1.1-1.1v-1.9c0-0.6,0.5-1.1,1.1-1.1h29.1
	c0.6,0,1.1,0.5,1.1,1.1v1.9C33,24.8,32.5,25.2,31.9,25.2z"/>
</svg>
