<?xml version="1.0" encoding="utf-8"?>
<!-- Generator: Adobe Illustrator 24.2.1, SVG Export Plug-In . SVG Version: 6.00 Build 0)  -->
<svg version="1.2" baseProfile="tiny" xmlns="http://www.w3.org/2000/svg" xmlns:xlink="http://www.w3.org/1999/xlink" x="0px"
	 y="0px" viewBox="0 0 700 600" overflow="visible" xml:space="preserve">
<g id="black_bg" display="none">
	<rect x="-1338.2" y="-306.8" display="inline" width="4531.8" height="1152"/>
</g>
<g id="logos">
	<g>
		<g>
			<path fill="#FFFFFF" d="M135.9,474.5c1.3,2.9,2.6,5.9,3.8,8.9c1.2-3.1,2.5-6.1,3.8-9.1c1.3-2.9,2.7-5.8,4.1-8.5l39.6-78
				c0.7-1.3,1.4-2.4,2.2-3.1c0.7-0.7,1.6-1.3,2.5-1.6c0.9-0.4,2-0.5,3.1-0.5c1.2,0,2.5,0,4.1,0h27.3v154.1h-31.5v-88.7
				c0-4.3,0.2-9,0.6-14l-40.8,79.3c-1.3,2.5-3,4.3-5.1,5.6c-2.2,1.3-4.6,1.9-7.4,1.9h-4.9c-2.8,0-5.2-0.6-7.4-1.9
				c-2.2-1.3-3.9-3.1-5.1-5.6l-41.1-79.4c0.3,2.5,0.5,4.9,0.6,7.4c0.1,2.4,0.2,4.7,0.2,6.7v88.7H53V382.5h27.3c1.6,0,2.9,0,4.1,0
				c1.2,0,2.2,0.2,3.1,0.5c0.9,0.4,1.7,0.9,2.5,1.6c0.7,0.7,1.5,1.8,2.2,3.1l39.7,78.3C133.2,468.8,134.6,471.6,135.9,474.5z"/>
			<path fill="#FFFFFF" d="M395.4,459.5c0,6.6-0.7,13-2.1,19.1c-1.4,6.1-3.4,11.8-5.9,17.2c-2.6,5.4-5.8,10.3-9.5,14.9
				c-3.8,4.6-8.1,8.6-12.9,12.2l39,42.6h-29.4c-4.2,0-8.1-0.5-11.5-1.5c-3.5-1-6.5-3.1-9.2-6.2l-19.2-21.5c-3.1,0.6-6.3,1.1-9.5,1.5
				c-3.2,0.4-6.5,0.5-9.9,0.5c-12,0-22.9-2-32.8-6c-9.9-4-18.3-9.6-25.3-16.7c-7-7.1-12.5-15.4-16.3-25c-3.8-9.6-5.8-20-5.8-31.1
				c0-11.1,1.9-21.5,5.8-31.1c3.8-9.6,9.3-17.9,16.3-25c7-7.1,15.5-12.6,25.3-16.6c9.9-4,20.8-6,32.8-6s22.9,2,32.7,6.1
				c9.8,4.1,18.3,9.6,25.2,16.7c7,7.1,12.4,15.4,16.2,25C393.5,438.1,395.4,448.4,395.4,459.5z M358.8,459.5c0-7.6-1-14.5-3-20.6
				c-2-6.1-4.8-11.3-8.5-15.5c-3.7-4.2-8.2-7.5-13.6-9.7c-5.4-2.3-11.5-3.4-18.3-3.4c-6.9,0-13.1,1.1-18.5,3.4
				c-5.4,2.3-9.9,5.5-13.6,9.7s-6.5,9.4-8.5,15.5c-2,6.1-3,13-3,20.6c0,7.7,1,14.6,3,20.7c2,6.1,4.8,11.3,8.5,15.5s8.3,7.5,13.6,9.7
				c5.4,2.2,11.5,3.3,18.5,3.3c6.8,0,12.9-1.1,18.3-3.3c5.4-2.2,9.9-5.4,13.6-9.7c3.7-4.2,6.5-9.4,8.5-15.5
				C357.8,474.1,358.8,467.2,358.8,459.5z"/>
			<path fill="#FFFFFF" d="M509.8,382.4v28.4h-41.4v125.8h-35.8V410.8h-41.4v-28.4H509.8z"/>
			<path fill="#FFFFFF" d="M647,382.4v28.4h-43.4v125.8h-35.8V410.8h-41.4v-28.4H647z"/>
		</g>
	</g>
	<path fill="#FFFFFF" d="M191.9,59.1v46.7C319.3,105.9,423,208.4,424,334.7h45.5C468.5,183.2,344.5,60.1,191.9,59.1z"/>
	<path fill="#FFFFFF" d="M497.8,215.3v-95.9c-11.8-16.1-25.9-33.4-40.4-47.8c-16-15.9-34.1-30.1-52.3-42.7H303.8
		C392.1,60.7,462.9,128.9,497.8,215.3z"/>
	<path fill="#FFFFFF" d="M191.9,155.6v46.7c73.8,0.1,134,59.3,135,132.4h45.5C371.3,236.4,290.9,156.6,191.9,155.6z"/>
	<path fill="#660066" d="M191.9,202.4v117.1c0,8.4,6.8,15.3,15.3,15.3h119.7C325.9,261.6,265.7,202.4,191.9,202.4z"/>
	<path fill="#660066" d="M191.9,105.8v49.8c99,0.9,179.4,80.7,180.4,179.1H424C423,208.4,319.3,105.9,191.9,105.8z"/>
	<path fill="#660066" d="M497.8,319.4V215.3C462.9,128.9,392.1,60.7,303.8,28.8h-96.6c-8.4,0-15.3,6.8-15.3,15.3v15
		c152.6,0.9,276.6,124,277.6,275.6h13C490.9,334.7,497.8,327.9,497.8,319.4z"/>
	<path fill="#660066" d="M457.4,71.6c14.5,14.4,28.6,31.7,40.4,47.8V44.1c0-8.4-6.8-15.3-15.3-15.3h-77.3
		C423.3,41.4,441.4,55.7,457.4,71.6z"/>
</g>
</svg>
