<svg xmlns="http://www.w3.org/2000/svg" baseProfile="tiny" viewBox="0 0 1018 244.4" overflow="visible" fill="#fff" xmlns:v="https://vecta.io/nano"><path d="M358.4 124.2c1.7 3.7 3.3 7.5 4.8 11.3a149.3 149.3 0 0 1 4.9-11.6c1.7-3.7 3.5-7.4 5.3-10.9l50.5-99.5a13.77 13.77 0 0 1 2.8-4c.9-.9 2-1.6 3.2-2.1 1.3-.5 2.6-.7 4-.7h40v196.6h-40.2v-113c0-5.5.3-11.4.8-17.8l-52.1 101.1c-1.5 3-3.7 5.4-6.5 7.2-2.8 1.6-6.1 2.5-9.4 2.4h-6.2c-3.3.1-6.5-.8-9.4-2.4-2.8-1.7-5.1-4.2-6.5-7.2L291.8 72.3c.4 3.1.6 6.3.8 9.4s.3 6 .3 8.6v113.1h-40.2V6.9h40c1.4 0 2.7.2 4 .7 1.2.5 2.3 1.2 3.2 2.1 1.1 1.2 2 2.5 2.8 4l50.6 99.9a212.63 212.63 0 0 1 5.1 10.6zM689.5 105c0 8.2-.9 16.4-2.6 24.4-1.7 7.6-4.2 14.9-7.6 21.9-3.3 6.8-7.3 13.2-12.2 19-4.8 5.8-10.3 11-16.4 15.5l49.8 54.4H663c-5 0-9.9-.6-14.7-2a24.24 24.24 0 0 1-11.7-7.9L612.1 203c-4 .8-8 1.4-12.1 1.9-4.2.5-8.4.7-12.6.7-15.3 0-29.3-2.6-41.9-7.7-24.3-9.6-43.6-28.8-53.1-53.2a110.89 110.89 0 0 1 0-79.4c4.7-11.9 11.8-22.8 20.8-31.9 9.2-9.2 20.2-16.4 32.3-21.2 12.6-5.1 26.6-7.7 41.9-7.7s29.2 2.6 41.8 7.8c12.1 4.9 23 12.1 32.2 21.3 9 9.1 16 20 20.7 31.9 5 12.5 7.5 26 7.4 39.5zm-46.7 0c.1-8.9-1.1-17.8-3.8-26.3-2.2-7.3-5.9-14-10.9-19.8-4.8-5.4-10.7-9.7-17.3-12.4-7.4-3-15.4-4.5-23.3-4.3-8.1-.1-16.1 1.3-23.6 4.3-6.7 2.7-12.6 7-17.4 12.4-4.9 5.8-8.6 12.5-10.9 19.8-5.1 17.2-5.1 35.5 0 52.7 2.2 7.3 5.9 14 10.9 19.8 4.8 5.4 10.7 9.7 17.4 12.3 7.5 3 15.5 4.4 23.6 4.2 8 .1 15.9-1.3 23.3-4.2 6.7-2.7 12.6-6.9 17.3-12.3 4.9-5.8 8.6-12.5 10.9-19.8 2.6-8.5 3.9-17.5 3.8-26.4h0zM836 6.7v36.2h-53.4v160.5H737V42.9h-53.4V6.7H836zm174.5 0v36.2h-55.3v160.5h-45.6V42.9h-53.4V6.7h154.3zM5.3 118.1h-.6v77.6c0 5.6 4.6 10.2 10.2 10.2h79.9c-.7-48.6-40.6-87.8-89.5-87.8zm0-64h-.6v33c65.9.3 119.5 53.3 120.2 118.8h34.2C158.5 122 89.7 54.1 5.3 54.1zM79.5 3H14.9C9.3 3 4.7 7.6 4.7 13.2v9.9c101.4.3 183.9 82 184.6 182.8h9.2c5.6 0 10.2-4.6 10.2-10.2v-67.1C185.9 70.4 138.6 24.3 79.5 3zm102.4 28.3l1.5 1.5c9.4 9.5 17.8 19.5 25.4 30V13.2c0-5.6-4.6-10.2-10.2-10.2H148c12 8.4 23.4 17.8 33.9 28.3z"/></svg>